<?xml version="1.0" encoding="utf-8"?>
<!-- Generator: Adobe Illustrator 16.0.0, SVG Export Plug-In . SVG Version: 6.00 Build 0)  -->
<!DOCTYPE svg PUBLIC "-//W3C//DTD SVG 1.1//EN" "http://www.w3.org/Graphics/SVG/1.1/DTD/svg11.dtd">
<svg version="1.1" id="Layer_1" xmlns="http://www.w3.org/2000/svg" xmlns:xlink="http://www.w3.org/1999/xlink" x="0px" y="0px"
	 width="291px" height="111px" viewBox="0 0 291 111" enable-background="new 0 0 291 111" xml:space="preserve">
<g>
	<g>
		<g>
			<path fill="#363636" d="M19.036,95.084c-0.075,0-0.13-0.021-0.17-0.065c-0.041-0.044-0.062-0.098-0.062-0.156v-7.275
				c0-0.06,0.022-0.109,0.066-0.156c0.045-0.041,0.095-0.064,0.156-0.064h2.91c0.433,0,0.813,0.087,1.141,0.257
				c0.326,0.176,0.583,0.412,0.766,0.713c0.184,0.303,0.275,0.644,0.275,1.027c0,0.337-0.061,0.641-0.182,0.914
				c-0.12,0.271-0.29,0.498-0.507,0.678c-0.217,0.18-0.464,0.307-0.744,0.391l-0.508-0.089c0.294,0,0.574,0.075,0.839,0.227
				s0.481,0.373,0.649,0.661c0.169,0.29,0.254,0.646,0.254,1.064c0,0.36,0.017,0.634,0.05,0.822
				c0.034,0.188,0.078,0.323,0.132,0.411c0.055,0.087,0.12,0.16,0.193,0.211c0.043,0.029,0.077,0.066,0.1,0.11
				c0.022,0.044,0.024,0.096,0.011,0.155c-0.015,0.044-0.039,0.079-0.071,0.104c-0.033,0.025-0.068,0.042-0.105,0.05
				c-0.037,0.008-0.078,0-0.121-0.021c-0.103-0.06-0.203-0.149-0.304-0.265c-0.098-0.117-0.182-0.3-0.247-0.541
				c-0.066-0.242-0.101-0.588-0.101-1.037c0-0.346-0.054-0.621-0.16-0.826c-0.107-0.206-0.242-0.364-0.407-0.475
				c-0.166-0.111-0.343-0.183-0.53-0.221c-0.188-0.036-0.358-0.055-0.513-0.055h-2.679l0.1-0.133v3.362
				c0,0.059-0.022,0.112-0.067,0.156C19.157,95.063,19.102,95.084,19.036,95.084z M19.157,91.193h2.833
				c0.295-0.031,0.567-0.119,0.816-0.267c0.25-0.146,0.455-0.353,0.611-0.618c0.16-0.262,0.238-0.574,0.238-0.937
				c0-0.447-0.16-0.82-0.479-1.117c-0.319-0.299-0.753-0.446-1.297-0.446h-2.667l0.055-0.077v3.581L19.157,91.193z"/>
			<path fill="#363636" d="M29.189,95.195c-0.551,0-1.038-0.118-1.46-0.355c-0.423-0.235-0.755-0.567-0.998-0.997
				c-0.243-0.43-0.365-0.935-0.365-1.518c0-0.615,0.12-1.14,0.359-1.574s0.548-0.767,0.926-0.996
				c0.378-0.232,0.78-0.349,1.207-0.349c0.309,0,0.61,0.05,0.905,0.147c0.293,0.1,0.556,0.252,0.788,0.465
				c0.23,0.207,0.419,0.468,0.563,0.783c0.143,0.313,0.222,0.687,0.236,1.119c0,0.059-0.021,0.111-0.065,0.158
				c-0.045,0.05-0.097,0.071-0.156,0.071h-4.497l-0.067-0.419h4.443l-0.11,0.1v-0.198c-0.037-0.391-0.16-0.719-0.368-0.981
				c-0.211-0.265-0.462-0.464-0.757-0.601c-0.293-0.136-0.598-0.205-0.915-0.205c-0.221,0-0.452,0.051-0.694,0.149
				c-0.243,0.1-0.467,0.251-0.672,0.453c-0.207,0.203-0.374,0.456-0.502,0.766s-0.192,0.67-0.192,1.079
				c0,0.451,0.09,0.862,0.271,1.237c0.179,0.373,0.447,0.676,0.804,0.903c0.357,0.229,0.795,0.342,1.317,0.342
				c0.25,0,0.486-0.042,0.706-0.129c0.221-0.083,0.418-0.195,0.596-0.333c0.175-0.142,0.32-0.291,0.429-0.452
				c0.06-0.068,0.122-0.101,0.187-0.101c0.052,0,0.096,0.02,0.133,0.062c0.037,0.039,0.056,0.085,0.056,0.137
				c0,0.051-0.016,0.098-0.044,0.132c-0.229,0.296-0.52,0.554-0.876,0.771C30.018,95.084,29.623,95.195,29.189,95.195z"/>
			<path fill="#363636" d="M38.262,89.582c0.066,0,0.12,0.022,0.16,0.065c0.041,0.046,0.061,0.097,0.061,0.156v5.059
				c0,0.059-0.022,0.112-0.066,0.156c-0.044,0.044-0.097,0.065-0.155,0.065c-0.066,0-0.12-0.021-0.16-0.065
				c-0.041-0.044-0.061-0.098-0.061-0.156v-1.563l0.176-0.144c0,0.233-0.059,0.473-0.176,0.715s-0.279,0.464-0.485,0.659
				c-0.206,0.204-0.449,0.36-0.727,0.482c-0.28,0.123-0.581,0.184-0.904,0.184c-0.493,0-0.931-0.131-1.317-0.388
				c-0.387-0.259-0.689-0.606-0.91-1.047c-0.222-0.441-0.332-0.936-0.332-1.488c0-0.559,0.113-1.055,0.335-1.482
				c0.225-0.431,0.531-0.77,0.917-1.017c0.385-0.245,0.82-0.367,1.306-0.367c0.316,0,0.613,0.054,0.893,0.17
				c0.279,0.115,0.524,0.273,0.733,0.479s0.373,0.446,0.49,0.723c0.117,0.275,0.176,0.576,0.176,0.897L38.042,91.4v-1.597
				c0-0.06,0.02-0.11,0.061-0.156C38.142,89.604,38.196,89.582,38.262,89.582z M35.947,94.775c0.411,0,0.779-0.11,1.102-0.326
				c0.324-0.215,0.578-0.515,0.761-0.893c0.184-0.379,0.276-0.808,0.276-1.284c0-0.454-0.092-0.868-0.276-1.239
				c-0.183-0.371-0.437-0.666-0.761-0.885c-0.323-0.216-0.691-0.325-1.102-0.325c-0.405,0-0.769,0.108-1.091,0.314
				c-0.324,0.212-0.579,0.5-0.767,0.865c-0.188,0.369-0.281,0.791-0.281,1.27c0,0.477,0.091,0.905,0.276,1.284
				c0.183,0.378,0.435,0.678,0.76,0.893C35.168,94.665,35.536,94.775,35.947,94.775z"/>
			<path fill="#363636" d="M41.635,94.862c0,0.059-0.022,0.112-0.066,0.156c-0.043,0.044-0.095,0.065-0.155,0.065
				c-0.065,0-0.118-0.021-0.159-0.065c-0.041-0.044-0.061-0.098-0.061-0.156v-7.718c0-0.059,0.022-0.108,0.066-0.153
				c0.044-0.045,0.097-0.066,0.154-0.066c0.067,0,0.12,0.021,0.16,0.066c0.041,0.045,0.061,0.095,0.061,0.153V94.862z"/>
			<path fill="#363636" d="M43.808,89.539h2.558c0.058,0,0.107,0.02,0.148,0.065c0.04,0.043,0.061,0.093,0.061,0.146
				c0,0.056-0.021,0.106-0.061,0.146c-0.041,0.038-0.09,0.061-0.148,0.061h-2.558c-0.052,0-0.101-0.022-0.144-0.064
				c-0.043-0.047-0.066-0.095-0.066-0.143c0-0.062,0.023-0.111,0.066-0.151C43.707,89.558,43.755,89.539,43.808,89.539z
				 M44.931,87.917c0.067,0,0.12,0.021,0.161,0.066c0.04,0.043,0.06,0.095,0.06,0.155v5.741c0,0.245,0.032,0.421,0.094,0.537
				c0.062,0.112,0.142,0.187,0.237,0.219c0.096,0.034,0.188,0.051,0.276,0.051c0.051,0,0.095-0.007,0.131-0.021
				c0.038-0.014,0.082-0.021,0.132-0.021c0.052,0,0.097,0.018,0.133,0.061c0.037,0.039,0.055,0.085,0.055,0.135
				c0,0.066-0.042,0.124-0.126,0.172c-0.085,0.05-0.19,0.072-0.315,0.072c-0.044,0-0.122-0.002-0.236-0.005
				c-0.115-0.006-0.236-0.04-0.365-0.101c-0.128-0.063-0.237-0.177-0.325-0.343s-0.132-0.409-0.132-0.732v-5.765
				c0-0.061,0.022-0.112,0.066-0.155C44.822,87.938,44.873,87.917,44.931,87.917z"/>
			<path fill="#363636" d="M48.846,88.656c-0.119,0-0.212-0.033-0.281-0.099c-0.07-0.064-0.105-0.152-0.105-0.255v-0.089
				c0-0.102,0.037-0.188,0.11-0.251c0.073-0.069,0.169-0.1,0.287-0.1c0.102,0,0.189,0.03,0.258,0.1
				c0.07,0.063,0.105,0.149,0.105,0.251v0.089c0,0.103-0.036,0.19-0.105,0.255C49.046,88.623,48.955,88.656,48.846,88.656z
				 M49.065,94.862c0,0.059-0.021,0.112-0.066,0.156c-0.045,0.044-0.095,0.065-0.153,0.065c-0.067,0-0.121-0.021-0.161-0.065
				s-0.061-0.098-0.061-0.156v-5.235c0-0.061,0.021-0.111,0.066-0.154c0.044-0.046,0.095-0.066,0.155-0.066
				c0.064,0,0.119,0.021,0.158,0.066c0.042,0.043,0.061,0.094,0.061,0.154V94.862z"/>
			<path fill="#363636" d="M54.07,89.516c0.412,0,0.788,0.113,1.13,0.338c0.341,0.224,0.575,0.574,0.7,1.051l-0.143,0.099
				l0.055-0.208c0.096-0.241,0.263-0.46,0.502-0.65c0.239-0.189,0.508-0.346,0.806-0.457c0.297-0.113,0.585-0.172,0.866-0.172
				c0.44,0,0.804,0.096,1.091,0.288c0.286,0.19,0.497,0.445,0.633,0.767c0.135,0.316,0.204,0.68,0.204,1.083v3.209
				c0,0.059-0.021,0.112-0.061,0.156s-0.094,0.065-0.16,0.065c-0.066,0-0.12-0.021-0.16-0.065c-0.041-0.044-0.061-0.098-0.061-0.156
				v-3.165c0-0.321-0.053-0.617-0.159-0.885c-0.106-0.269-0.272-0.481-0.496-0.641c-0.225-0.157-0.517-0.237-0.876-0.237
				c-0.316,0-0.625,0.08-0.926,0.237c-0.302,0.159-0.55,0.372-0.745,0.641c-0.195,0.268-0.293,0.563-0.293,0.885v3.165
				c0,0.059-0.019,0.112-0.06,0.156c-0.04,0.044-0.094,0.065-0.16,0.065s-0.119-0.021-0.16-0.065s-0.062-0.098-0.062-0.156v-3.219
				c0-0.314-0.049-0.602-0.148-0.858c-0.099-0.258-0.255-0.463-0.468-0.62c-0.214-0.152-0.496-0.23-0.85-0.23
				c-0.308,0-0.608,0.078-0.898,0.23c-0.291,0.157-0.531,0.362-0.722,0.62c-0.191,0.257-0.287,0.544-0.287,0.858v3.219
				c0,0.059-0.023,0.112-0.066,0.156c-0.044,0.044-0.096,0.065-0.155,0.065c-0.066,0-0.119-0.021-0.16-0.065
				c-0.04-0.044-0.061-0.098-0.061-0.156v-5.059c0-0.06,0.022-0.11,0.066-0.156c0.044-0.043,0.096-0.065,0.154-0.065
				c0.067,0,0.119,0.022,0.16,0.065c0.039,0.046,0.061,0.097,0.061,0.156v1.199l-0.331,0.564c0-0.257,0.063-0.511,0.188-0.751
				c0.125-0.242,0.292-0.46,0.501-0.655c0.21-0.193,0.45-0.353,0.717-0.468C53.507,89.574,53.784,89.516,54.07,89.516z"/>
			<path fill="#363636" d="M65.051,95.195c-0.553,0-1.038-0.118-1.462-0.355c-0.422-0.235-0.755-0.567-0.997-0.997
				c-0.244-0.43-0.365-0.935-0.365-1.518c0-0.615,0.12-1.14,0.358-1.574c0.24-0.435,0.548-0.767,0.926-0.996
				c0.377-0.232,0.781-0.349,1.208-0.349c0.308,0,0.609,0.05,0.904,0.147c0.293,0.1,0.556,0.252,0.788,0.465
				c0.231,0.207,0.418,0.468,0.563,0.783c0.143,0.313,0.221,0.687,0.237,1.119c0,0.059-0.023,0.111-0.066,0.158
				c-0.045,0.05-0.097,0.071-0.154,0.071h-4.498l-0.066-0.419h4.441l-0.11,0.1v-0.198c-0.036-0.391-0.159-0.719-0.369-0.981
				c-0.21-0.265-0.461-0.464-0.755-0.601c-0.294-0.136-0.6-0.205-0.915-0.205c-0.222,0-0.453,0.051-0.694,0.149
				c-0.243,0.1-0.467,0.251-0.672,0.453c-0.206,0.203-0.374,0.456-0.502,0.766s-0.192,0.67-0.192,1.079
				c0,0.451,0.089,0.862,0.269,1.237c0.181,0.373,0.45,0.676,0.805,0.903c0.356,0.229,0.796,0.342,1.318,0.342
				c0.25,0,0.485-0.042,0.705-0.129c0.222-0.083,0.419-0.195,0.596-0.333c0.175-0.142,0.32-0.291,0.43-0.452
				c0.059-0.068,0.121-0.101,0.188-0.101c0.051,0,0.096,0.02,0.132,0.062c0.037,0.039,0.057,0.085,0.057,0.137
				c0,0.051-0.017,0.098-0.044,0.132c-0.23,0.296-0.521,0.554-0.877,0.771C65.88,95.084,65.484,95.195,65.051,95.195z"/>
			<path fill="#363636" d="M75.811,95.195c-0.552,0-1.039-0.118-1.462-0.355c-0.422-0.235-0.753-0.567-0.997-0.997
				s-0.364-0.935-0.364-1.518c0-0.615,0.12-1.14,0.358-1.574s0.547-0.767,0.927-0.996c0.377-0.232,0.781-0.349,1.206-0.349
				c0.311,0,0.61,0.05,0.904,0.147c0.294,0.1,0.556,0.252,0.788,0.465c0.231,0.207,0.419,0.468,0.563,0.783
				c0.144,0.313,0.222,0.687,0.237,1.119c0,0.059-0.021,0.111-0.065,0.158c-0.045,0.05-0.097,0.071-0.155,0.071h-4.498l-0.066-0.419
				h4.442l-0.111,0.1v-0.198c-0.036-0.391-0.16-0.719-0.369-0.981c-0.21-0.265-0.461-0.464-0.754-0.601
				c-0.294-0.136-0.6-0.205-0.916-0.205c-0.22,0-0.451,0.051-0.693,0.149c-0.244,0.1-0.467,0.251-0.673,0.453
				c-0.206,0.203-0.373,0.456-0.501,0.766c-0.129,0.31-0.193,0.67-0.193,1.079c0,0.451,0.089,0.862,0.269,1.237
				c0.181,0.373,0.449,0.676,0.805,0.903c0.357,0.229,0.796,0.342,1.318,0.342c0.249,0,0.485-0.042,0.705-0.129
				c0.22-0.083,0.419-0.195,0.597-0.333c0.175-0.142,0.318-0.291,0.429-0.452c0.058-0.068,0.12-0.101,0.188-0.101
				c0.052,0,0.095,0.02,0.132,0.062c0.037,0.039,0.057,0.085,0.057,0.137c0,0.051-0.017,0.098-0.046,0.132
				c-0.228,0.296-0.52,0.554-0.875,0.771C76.639,95.084,76.244,95.195,75.811,95.195z"/>
			<path fill="#363636" d="M82.789,89.406c0.463,0,0.84,0.092,1.13,0.275c0.291,0.185,0.502,0.434,0.64,0.749
				c0.136,0.318,0.205,0.67,0.205,1.059v3.373c0,0.059-0.022,0.112-0.067,0.156s-0.097,0.065-0.154,0.065
				c-0.065,0-0.121-0.021-0.16-0.065c-0.041-0.044-0.06-0.098-0.06-0.156v-3.328c0-0.317-0.054-0.604-0.16-0.86
				c-0.107-0.256-0.276-0.465-0.507-0.618c-0.231-0.151-0.534-0.232-0.909-0.232c-0.323,0-0.641,0.081-0.949,0.232
				c-0.309,0.153-0.564,0.362-0.766,0.618c-0.203,0.257-0.303,0.543-0.303,0.86v3.328c0,0.059-0.023,0.112-0.066,0.156
				c-0.044,0.044-0.095,0.065-0.154,0.065c-0.065,0-0.119-0.021-0.159-0.065s-0.062-0.098-0.062-0.156v-5.059
				c0-0.06,0.022-0.11,0.066-0.156c0.045-0.043,0.096-0.065,0.155-0.065c0.067,0,0.121,0.022,0.16,0.065
				c0.041,0.046,0.061,0.097,0.061,0.156v1.08l-0.276,0.528c0-0.263,0.071-0.519,0.21-0.761c0.14-0.24,0.323-0.458,0.551-0.643
				c0.228-0.191,0.48-0.336,0.755-0.443C82.243,89.459,82.518,89.406,82.789,89.406z"/>
			<path fill="#363636" d="M87.099,89.384c0.037,0,0.075,0.014,0.116,0.038c0.042,0.026,0.067,0.062,0.084,0.105l2.039,4.884
				l-0.11,0.076l2.072-4.96c0.038-0.096,0.114-0.144,0.232-0.144c0.037,0,0.081,0.015,0.133,0.043
				c0.051,0.031,0.077,0.073,0.077,0.132c0,0.036-0.004,0.067-0.011,0.086c-0.008,0.019-0.016,0.035-0.022,0.049l-2.195,5.247
				c-0.037,0.097-0.105,0.144-0.21,0.144c-0.044,0-0.085-0.013-0.125-0.038c-0.041-0.026-0.069-0.062-0.084-0.105l-2.203-5.237
				c-0.008-0.015-0.015-0.03-0.018-0.05c-0.004-0.018-0.006-0.033-0.006-0.049c0-0.059,0.019-0.111,0.055-0.154
				C86.959,89.406,87.018,89.384,87.099,89.384z"/>
			<path fill="#363636" d="M94.122,88.656c-0.118,0-0.212-0.033-0.282-0.099c-0.07-0.064-0.104-0.152-0.104-0.255v-0.089
				c0-0.102,0.038-0.188,0.111-0.251c0.072-0.069,0.169-0.1,0.286-0.1c0.104,0,0.189,0.03,0.26,0.1
				c0.07,0.063,0.105,0.149,0.105,0.251v0.089c0,0.103-0.036,0.19-0.105,0.255C94.321,88.623,94.232,88.656,94.122,88.656z
				 M94.342,94.862c0,0.059-0.023,0.112-0.066,0.156c-0.044,0.044-0.095,0.065-0.154,0.065c-0.065,0-0.119-0.021-0.16-0.065
				c-0.041-0.044-0.061-0.098-0.061-0.156v-5.235c0-0.061,0.021-0.111,0.066-0.154c0.043-0.046,0.094-0.066,0.154-0.066
				c0.066,0,0.119,0.021,0.159,0.066c0.041,0.043,0.062,0.094,0.062,0.154V94.862z"/>
			<path fill="#363636" d="M97.22,95.084c-0.066,0-0.12-0.021-0.16-0.065c-0.041-0.044-0.062-0.098-0.062-0.156v-5.059
				c0-0.06,0.023-0.11,0.067-0.156c0.044-0.043,0.094-0.065,0.155-0.065c0.066,0,0.12,0.022,0.16,0.065
				c0.04,0.046,0.06,0.097,0.06,0.156v1.862l-0.188,0.285c0-0.285,0.051-0.575,0.15-0.869c0.099-0.294,0.243-0.569,0.435-0.82
				c0.19-0.253,0.423-0.463,0.701-0.617c0.274-0.161,0.593-0.238,0.952-0.238c0.102,0,0.213,0.015,0.332,0.044
				c0.117,0.027,0.175,0.099,0.175,0.211c0,0.065-0.018,0.119-0.055,0.162c-0.036,0.046-0.084,0.069-0.143,0.069
				c-0.044,0-0.098-0.019-0.16-0.052c-0.063-0.035-0.153-0.05-0.271-0.05c-0.236,0-0.466,0.07-0.694,0.211
				c-0.228,0.137-0.436,0.323-0.624,0.555c-0.186,0.233-0.336,0.485-0.447,0.756c-0.109,0.271-0.165,0.537-0.165,0.795v2.755
				c0,0.059-0.022,0.112-0.066,0.156S97.278,95.084,97.22,95.084z"/>
			<path fill="#363636" d="M106.733,92.305c0,0.546-0.118,1.037-0.353,1.473c-0.236,0.438-0.557,0.785-0.965,1.036
				c-0.407,0.253-0.874,0.382-1.394,0.382c-0.515,0-0.978-0.129-1.39-0.382c-0.412-0.251-0.737-0.599-0.974-1.036
				c-0.24-0.436-0.359-0.927-0.359-1.473c0-0.55,0.119-1.045,0.359-1.482c0.237-0.436,0.563-0.783,0.974-1.036
				c0.412-0.255,0.875-0.38,1.39-0.38c0.521,0,0.987,0.125,1.394,0.38c0.408,0.253,0.729,0.601,0.965,1.036
				C106.616,91.26,106.733,91.755,106.733,92.305z M106.292,92.305c0-0.477-0.097-0.9-0.292-1.271
				c-0.194-0.371-0.462-0.666-0.804-0.885c-0.343-0.216-0.734-0.325-1.174-0.325c-0.434,0-0.823,0.109-1.169,0.325
				c-0.345,0.219-0.616,0.514-0.815,0.885s-0.298,0.795-0.298,1.271c0,0.471,0.099,0.891,0.298,1.263s0.471,0.667,0.815,0.882
				c0.346,0.216,0.735,0.326,1.169,0.326c0.44,0,0.832-0.11,1.174-0.326c0.342-0.215,0.609-0.51,0.804-0.882
				C106.194,93.195,106.292,92.775,106.292,92.305z"/>
			<path fill="#363636" d="M111.55,89.406c0.463,0,0.839,0.092,1.13,0.275c0.29,0.185,0.503,0.434,0.638,0.749
				c0.138,0.318,0.205,0.67,0.205,1.059v3.373c0,0.059-0.022,0.112-0.065,0.156c-0.044,0.044-0.097,0.065-0.155,0.065
				c-0.066,0-0.12-0.021-0.16-0.065c-0.041-0.044-0.062-0.098-0.062-0.156v-3.328c0-0.317-0.053-0.604-0.159-0.86
				c-0.107-0.256-0.276-0.465-0.507-0.618c-0.231-0.151-0.535-0.232-0.91-0.232c-0.323,0-0.639,0.081-0.947,0.232
				c-0.31,0.153-0.564,0.362-0.767,0.618c-0.203,0.257-0.303,0.543-0.303,0.86v3.328c0,0.059-0.021,0.112-0.066,0.156
				c-0.045,0.044-0.096,0.065-0.155,0.065c-0.066,0-0.12-0.021-0.16-0.065c-0.041-0.044-0.059-0.098-0.059-0.156v-5.059
				c0-0.06,0.02-0.11,0.065-0.156c0.045-0.043,0.096-0.065,0.154-0.065c0.066,0,0.119,0.022,0.16,0.065
				c0.04,0.046,0.061,0.097,0.061,0.156v1.08l-0.276,0.528c0-0.263,0.07-0.519,0.21-0.761c0.139-0.24,0.323-0.458,0.551-0.643
				c0.228-0.191,0.479-0.336,0.754-0.443C111.005,89.459,111.279,89.406,111.55,89.406z"/>
			<path fill="#363636" d="M118.527,89.516c0.413,0,0.791,0.113,1.131,0.338c0.342,0.224,0.575,0.574,0.7,1.051l-0.144,0.099
				l0.057-0.208c0.095-0.241,0.262-0.46,0.501-0.65c0.239-0.189,0.507-0.346,0.805-0.457c0.299-0.113,0.586-0.172,0.865-0.172
				c0.441,0,0.806,0.096,1.091,0.288c0.287,0.19,0.5,0.445,0.634,0.767c0.136,0.316,0.204,0.68,0.204,1.083v3.209
				c0,0.059-0.021,0.112-0.061,0.156c-0.041,0.044-0.093,0.065-0.16,0.065c-0.065,0-0.118-0.021-0.16-0.065
				c-0.039-0.044-0.06-0.098-0.06-0.156v-3.165c0-0.321-0.053-0.617-0.16-0.885c-0.107-0.269-0.271-0.481-0.496-0.641
				c-0.225-0.157-0.516-0.237-0.876-0.237c-0.316,0-0.625,0.08-0.927,0.237c-0.3,0.159-0.548,0.372-0.744,0.641
				c-0.194,0.268-0.292,0.563-0.292,0.885v3.165c0,0.059-0.021,0.112-0.061,0.156c-0.041,0.044-0.093,0.065-0.161,0.065
				c-0.065,0-0.119-0.021-0.16-0.065c-0.04-0.044-0.06-0.098-0.06-0.156v-3.219c0-0.314-0.051-0.602-0.149-0.858
				c-0.1-0.258-0.256-0.463-0.469-0.62c-0.213-0.152-0.495-0.23-0.85-0.23c-0.308,0-0.607,0.078-0.896,0.23
				c-0.291,0.157-0.532,0.362-0.723,0.62c-0.191,0.257-0.288,0.544-0.288,0.858v3.219c0,0.059-0.021,0.112-0.065,0.156
				c-0.044,0.044-0.097,0.065-0.155,0.065c-0.067,0-0.12-0.021-0.16-0.065s-0.06-0.098-0.06-0.156v-5.059
				c0-0.06,0.021-0.11,0.066-0.156c0.043-0.043,0.095-0.065,0.154-0.065c0.066,0,0.12,0.022,0.16,0.065
				c0.04,0.046,0.06,0.097,0.06,0.156v1.199l-0.331,0.564c0-0.257,0.062-0.511,0.189-0.751c0.123-0.242,0.291-0.46,0.5-0.655
				c0.209-0.193,0.447-0.353,0.717-0.468C117.965,89.574,118.242,89.516,118.527,89.516z"/>
			<path fill="#363636" d="M129.509,95.195c-0.551,0-1.038-0.118-1.46-0.355c-0.422-0.235-0.756-0.567-0.998-0.997
				c-0.242-0.43-0.363-0.935-0.363-1.518c0-0.615,0.118-1.14,0.357-1.574s0.548-0.767,0.926-0.996
				c0.379-0.232,0.78-0.349,1.208-0.349c0.308,0,0.609,0.05,0.903,0.147c0.293,0.1,0.558,0.252,0.788,0.465
				c0.232,0.207,0.419,0.468,0.562,0.783c0.145,0.313,0.224,0.687,0.238,1.119c0,0.059-0.022,0.111-0.067,0.158
				c-0.043,0.05-0.094,0.071-0.154,0.071h-4.498l-0.066-0.419h4.443l-0.111,0.1v-0.198c-0.037-0.391-0.16-0.719-0.369-0.981
				c-0.208-0.265-0.461-0.464-0.755-0.601c-0.293-0.136-0.598-0.205-0.914-0.205c-0.221,0-0.453,0.051-0.695,0.149
				c-0.243,0.1-0.467,0.251-0.672,0.453c-0.206,0.203-0.374,0.456-0.502,0.766c-0.129,0.31-0.193,0.67-0.193,1.079
				c0,0.451,0.091,0.862,0.271,1.237c0.18,0.373,0.447,0.676,0.804,0.903c0.356,0.229,0.796,0.342,1.318,0.342
				c0.25,0,0.485-0.042,0.706-0.129c0.221-0.083,0.418-0.195,0.595-0.333c0.178-0.142,0.319-0.291,0.43-0.452
				c0.06-0.068,0.121-0.101,0.187-0.101c0.051,0,0.097,0.02,0.133,0.062c0.037,0.039,0.056,0.085,0.056,0.137
				c0,0.051-0.015,0.098-0.043,0.132c-0.228,0.296-0.521,0.554-0.877,0.771C130.337,95.084,129.942,95.195,129.509,95.195z"/>
			<path fill="#363636" d="M136.487,89.406c0.463,0,0.84,0.092,1.13,0.275c0.29,0.185,0.503,0.434,0.639,0.749
				c0.136,0.318,0.203,0.67,0.203,1.059v3.373c0,0.059-0.021,0.112-0.065,0.156s-0.096,0.065-0.155,0.065
				c-0.065,0-0.119-0.021-0.159-0.065c-0.041-0.044-0.062-0.098-0.062-0.156v-3.328c0-0.317-0.053-0.604-0.159-0.86
				c-0.108-0.256-0.276-0.465-0.508-0.618c-0.231-0.151-0.535-0.232-0.91-0.232c-0.322,0-0.639,0.081-0.949,0.232
				c-0.308,0.153-0.563,0.362-0.766,0.618c-0.202,0.257-0.303,0.543-0.303,0.86v3.328c0,0.059-0.021,0.112-0.065,0.156
				c-0.044,0.044-0.096,0.065-0.154,0.065c-0.066,0-0.12-0.021-0.16-0.065c-0.041-0.044-0.06-0.098-0.06-0.156v-5.059
				c0-0.06,0.021-0.11,0.065-0.156c0.043-0.043,0.096-0.065,0.155-0.065c0.066,0,0.119,0.022,0.16,0.065
				c0.041,0.046,0.06,0.097,0.06,0.156v1.08l-0.276,0.528c0-0.263,0.07-0.519,0.211-0.761c0.14-0.24,0.323-0.458,0.55-0.643
				c0.229-0.191,0.48-0.336,0.756-0.443C135.942,89.459,136.215,89.406,136.487,89.406z"/>
			<path fill="#363636" d="M140.61,89.539h2.559c0.059,0,0.107,0.02,0.147,0.065c0.041,0.043,0.061,0.093,0.061,0.146
				c0,0.056-0.02,0.106-0.061,0.146c-0.041,0.038-0.089,0.061-0.147,0.061h-2.559c-0.051,0-0.099-0.022-0.143-0.064
				c-0.045-0.047-0.066-0.095-0.066-0.143c0-0.062,0.021-0.111,0.066-0.151C140.511,89.558,140.559,89.539,140.61,89.539z
				 M141.735,87.917c0.066,0,0.119,0.021,0.16,0.066c0.041,0.043,0.06,0.095,0.06,0.155v5.741c0,0.245,0.034,0.421,0.095,0.537
				c0.062,0.112,0.141,0.187,0.237,0.219c0.094,0.034,0.188,0.051,0.274,0.051c0.051,0,0.097-0.007,0.132-0.021
				c0.036-0.014,0.081-0.021,0.133-0.021c0.05,0,0.095,0.018,0.132,0.061c0.036,0.039,0.055,0.085,0.055,0.135
				c0,0.066-0.043,0.124-0.127,0.172c-0.085,0.05-0.19,0.072-0.314,0.072c-0.044,0-0.123-0.002-0.237-0.005
				c-0.114-0.006-0.236-0.04-0.364-0.101c-0.129-0.063-0.237-0.177-0.325-0.343c-0.089-0.166-0.133-0.409-0.133-0.732v-5.765
				c0-0.061,0.022-0.112,0.066-0.155C141.625,87.938,141.675,87.917,141.735,87.917z"/>
			<path fill="#363636" d="M151.459,89.647c0.057,0,0.105,0.022,0.146,0.063s0.063,0.088,0.063,0.147
				c0,0.059-0.021,0.11-0.063,0.151c-0.041,0.038-0.09,0.059-0.146,0.059h-2.625c-0.053,0-0.1-0.021-0.144-0.065
				s-0.067-0.092-0.067-0.145c0-0.066,0.023-0.114,0.067-0.154c0.044-0.036,0.091-0.056,0.144-0.056H151.459z M150.951,86.98
				c0.088,0,0.191,0.009,0.314,0.021c0.123,0.016,0.225,0.044,0.32,0.089c0.09,0.044,0.137,0.112,0.137,0.197
				c0,0.052-0.021,0.102-0.063,0.15c-0.039,0.05-0.088,0.071-0.148,0.071c-0.072,0-0.158-0.021-0.262-0.065
				c-0.105-0.045-0.217-0.068-0.342-0.068c-0.148,0-0.277,0.034-0.391,0.102c-0.117,0.065-0.203,0.165-0.268,0.301
				c-0.063,0.138-0.092,0.311-0.092,0.524v6.56c0,0.059-0.023,0.112-0.068,0.156s-0.096,0.065-0.152,0.065
				c-0.066,0-0.121-0.021-0.16-0.065c-0.041-0.044-0.063-0.098-0.063-0.156v-6.56c0-0.454,0.123-0.789,0.365-1.003
				S150.613,86.98,150.951,86.98z"/>
			<path fill="#363636" d="M158.393,92.305c0,0.546-0.117,1.037-0.354,1.473c-0.234,0.438-0.555,0.785-0.965,1.036
				c-0.406,0.253-0.873,0.382-1.395,0.382c-0.514,0-0.977-0.129-1.387-0.382c-0.414-0.251-0.738-0.599-0.979-1.036
				c-0.236-0.436-0.357-0.927-0.357-1.473c0-0.55,0.121-1.045,0.357-1.482c0.24-0.436,0.564-0.783,0.979-1.036
				c0.41-0.255,0.873-0.38,1.387-0.38c0.521,0,0.988,0.125,1.395,0.38c0.41,0.253,0.73,0.601,0.965,1.036
				C158.275,91.26,158.393,91.755,158.393,92.305z M157.951,92.305c0-0.477-0.094-0.9-0.291-1.271
				c-0.195-0.371-0.465-0.666-0.807-0.885c-0.34-0.216-0.732-0.325-1.174-0.325c-0.432,0-0.822,0.109-1.17,0.325
				c-0.344,0.219-0.615,0.514-0.813,0.885c-0.201,0.371-0.299,0.795-0.299,1.271c0,0.471,0.098,0.891,0.299,1.263
				c0.197,0.372,0.469,0.667,0.813,0.882c0.348,0.216,0.738,0.326,1.17,0.326c0.441,0,0.834-0.11,1.174-0.326
				c0.342-0.215,0.611-0.51,0.807-0.882C157.857,93.195,157.951,92.775,157.951,92.305z"/>
			<path fill="#363636" d="M160.928,95.084c-0.066,0-0.119-0.021-0.16-0.065s-0.059-0.098-0.059-0.156v-5.059
				c0-0.06,0.021-0.11,0.064-0.156c0.043-0.043,0.096-0.065,0.154-0.065c0.064,0,0.119,0.022,0.16,0.065
				c0.039,0.046,0.061,0.097,0.061,0.156v1.862l-0.188,0.285c0-0.285,0.049-0.575,0.148-0.869s0.244-0.569,0.436-0.82
				c0.191-0.253,0.424-0.463,0.699-0.617c0.277-0.161,0.594-0.238,0.955-0.238c0.102,0,0.213,0.015,0.33,0.044
				c0.115,0.027,0.176,0.099,0.176,0.211c0,0.065-0.018,0.119-0.055,0.162c-0.035,0.046-0.086,0.069-0.143,0.069
				c-0.043,0-0.1-0.019-0.16-0.052c-0.063-0.035-0.152-0.05-0.27-0.05c-0.236,0-0.469,0.07-0.695,0.211
				c-0.227,0.137-0.434,0.323-0.621,0.555c-0.189,0.233-0.338,0.485-0.447,0.756c-0.111,0.271-0.166,0.537-0.166,0.795v2.755
				c0,0.059-0.021,0.112-0.066,0.156C161.039,95.063,160.988,95.084,160.928,95.084z"/>
			<path fill="#363636" d="M173.945,86.925c0.068,0,0.121,0.021,0.16,0.066c0.043,0.045,0.063,0.095,0.063,0.153v7.718
				c0,0.059-0.021,0.112-0.064,0.156c-0.047,0.044-0.1,0.065-0.158,0.065c-0.064,0-0.117-0.021-0.158-0.065
				s-0.063-0.098-0.063-0.156v-1.563l0.18-0.243c0,0.251-0.059,0.501-0.172,0.754c-0.115,0.256-0.275,0.486-0.484,0.694
				c-0.211,0.212-0.455,0.379-0.732,0.503c-0.283,0.126-0.584,0.188-0.906,0.188c-0.484,0-0.922-0.129-1.307-0.382
				c-0.385-0.251-0.689-0.599-0.916-1.036c-0.221-0.436-0.334-0.932-0.334-1.484c0-0.55,0.113-1.044,0.334-1.48
				c0.227-0.437,0.531-0.782,0.916-1.032c0.385-0.249,0.822-0.374,1.307-0.374c0.301,0,0.592,0.054,0.865,0.17
				c0.275,0.115,0.52,0.273,0.732,0.479c0.215,0.206,0.383,0.446,0.508,0.723c0.125,0.275,0.189,0.576,0.189,0.897l-0.18-0.275
				v-4.256c0-0.059,0.021-0.108,0.063-0.153S173.881,86.925,173.945,86.925z M171.633,94.775c0.418,0,0.787-0.105,1.107-0.32
				c0.32-0.213,0.572-0.507,0.756-0.881c0.184-0.375,0.273-0.801,0.273-1.281c0-0.475-0.09-0.9-0.273-1.272
				c-0.184-0.369-0.438-0.662-0.762-0.876c-0.322-0.213-0.691-0.321-1.102-0.321c-0.406,0-0.77,0.108-1.092,0.321
				c-0.322,0.214-0.578,0.507-0.768,0.876c-0.186,0.372-0.279,0.798-0.279,1.272c0,0.472,0.094,0.895,0.279,1.271
				c0.189,0.373,0.445,0.671,0.768,0.886C170.863,94.665,171.227,94.775,171.633,94.775z"/>
			<path fill="#363636" d="M177.045,88.656c-0.117,0-0.213-0.033-0.279-0.099c-0.072-0.064-0.105-0.152-0.105-0.255v-0.089
				c0-0.102,0.033-0.188,0.109-0.251c0.074-0.069,0.168-0.1,0.285-0.1c0.105,0,0.189,0.03,0.258,0.1
				c0.072,0.063,0.105,0.149,0.105,0.251v0.089c0,0.103-0.033,0.19-0.105,0.255C177.244,88.623,177.154,88.656,177.045,88.656z
				 M177.266,94.862c0,0.059-0.023,0.112-0.068,0.156c-0.043,0.044-0.096,0.065-0.152,0.065c-0.064,0-0.119-0.021-0.158-0.065
				c-0.041-0.044-0.063-0.098-0.063-0.156v-5.235c0-0.061,0.023-0.111,0.066-0.154c0.043-0.046,0.094-0.066,0.154-0.066
				c0.064,0,0.119,0.021,0.16,0.066c0.039,0.043,0.061,0.094,0.061,0.154V94.862z"/>
			<path fill="#363636" d="M179.613,94.201c-0.053-0.089-0.074-0.159-0.072-0.216c0.004-0.054,0.033-0.099,0.082-0.136
				c0.039-0.039,0.088-0.054,0.15-0.052c0.061,0.004,0.113,0.031,0.16,0.082c0.191,0.273,0.436,0.496,0.732,0.664
				c0.299,0.17,0.648,0.253,1.051,0.253c0.246,0,0.479-0.041,0.703-0.122c0.223-0.081,0.406-0.2,0.551-0.361
				c0.143-0.164,0.215-0.362,0.215-0.597c0-0.251-0.07-0.45-0.209-0.603c-0.141-0.15-0.318-0.269-0.541-0.357
				c-0.223-0.088-0.453-0.162-0.695-0.221c-0.258-0.065-0.5-0.14-0.732-0.227c-0.23-0.081-0.436-0.189-0.613-0.318
				c-0.176-0.128-0.313-0.281-0.418-0.457c-0.104-0.178-0.154-0.385-0.154-0.63c0-0.286,0.076-0.544,0.232-0.771
				c0.154-0.229,0.373-0.406,0.652-0.535c0.275-0.13,0.6-0.192,0.969-0.192c0.174,0,0.361,0.021,0.563,0.066
				c0.197,0.043,0.395,0.119,0.596,0.226c0.197,0.106,0.379,0.257,0.549,0.446c0.059,0.044,0.088,0.097,0.084,0.161
				c-0.006,0.062-0.033,0.122-0.084,0.17c-0.041,0.028-0.09,0.044-0.143,0.044c-0.051,0-0.098-0.021-0.133-0.065
				c-0.189-0.213-0.412-0.37-0.668-0.476c-0.252-0.103-0.521-0.155-0.809-0.155c-0.24,0-0.469,0.043-0.678,0.125
				c-0.209,0.078-0.381,0.197-0.512,0.357c-0.135,0.157-0.199,0.356-0.199,0.599c0.014,0.229,0.094,0.416,0.236,0.562
				c0.145,0.149,0.336,0.269,0.576,0.365c0.236,0.096,0.508,0.184,0.809,0.265c0.242,0.06,0.467,0.128,0.678,0.204
				c0.209,0.076,0.393,0.175,0.551,0.294c0.158,0.116,0.281,0.263,0.375,0.439c0.092,0.176,0.137,0.397,0.137,0.66
				c0,0.311-0.08,0.577-0.248,0.8c-0.164,0.224-0.393,0.396-0.682,0.519c-0.291,0.123-0.623,0.184-0.998,0.184
				c-0.383,0-0.752-0.077-1.104-0.232C180.219,94.808,179.898,94.554,179.613,94.201z"/>
			<path fill="#363636" d="M188.434,89.516c0.492,0,0.928,0.122,1.311,0.364c0.383,0.241,0.686,0.577,0.91,0.996
				c0.225,0.425,0.336,0.909,0.336,1.449c0,0.538-0.111,1.021-0.336,1.446c-0.225,0.428-0.529,0.762-0.914,1.01
				c-0.387,0.245-0.82,0.369-1.307,0.369c-0.242,0-0.477-0.035-0.699-0.104c-0.225-0.071-0.434-0.17-0.623-0.297
				c-0.193-0.129-0.367-0.291-0.525-0.481c-0.156-0.191-0.295-0.406-0.41-0.649l0.139-0.155v3.604c0,0.059-0.02,0.11-0.059,0.155
				c-0.041,0.044-0.094,0.066-0.16,0.066c-0.059,0-0.111-0.022-0.154-0.066c-0.045-0.045-0.064-0.097-0.064-0.155v-7.33
				c0-0.058,0.018-0.11,0.061-0.155c0.037-0.043,0.09-0.066,0.158-0.066c0.066,0,0.119,0.023,0.16,0.066
				c0.039,0.045,0.059,0.098,0.059,0.155v1.412l-0.139-0.079c0.102-0.272,0.227-0.507,0.385-0.704
				c0.152-0.201,0.33-0.362,0.525-0.486c0.199-0.124,0.414-0.217,0.641-0.275C187.955,89.546,188.191,89.516,188.434,89.516z
				 M188.408,89.935c-0.416,0-0.785,0.104-1.107,0.309c-0.318,0.208-0.57,0.488-0.754,0.844c-0.182,0.358-0.275,0.771-0.275,1.238
				c0,0.466,0.094,0.878,0.275,1.242c0.184,0.364,0.436,0.649,0.754,0.855c0.322,0.205,0.691,0.311,1.107,0.311
				c0.414,0,0.779-0.105,1.098-0.311c0.32-0.206,0.576-0.491,0.762-0.855c0.189-0.364,0.283-0.776,0.283-1.242
				c0-0.461-0.094-0.871-0.283-1.233c-0.186-0.359-0.441-0.641-0.762-0.849C189.188,90.038,188.822,89.935,188.408,89.935z"/>
			<path fill="#363636" d="M197.459,89.582c0.07,0,0.123,0.022,0.162,0.065c0.041,0.046,0.063,0.097,0.063,0.156v3.205
				c0,0.717-0.201,1.251-0.604,1.606c-0.398,0.357-0.932,0.535-1.592,0.535c-0.654,0-1.182-0.178-1.582-0.535
				c-0.4-0.355-0.6-0.89-0.6-1.606v-3.205c0-0.06,0.02-0.11,0.064-0.156c0.045-0.043,0.096-0.065,0.154-0.065
				c0.066,0,0.119,0.022,0.162,0.065c0.039,0.046,0.059,0.097,0.059,0.156v3.205c0,0.561,0.156,0.986,0.469,1.28
				c0.313,0.295,0.734,0.444,1.273,0.444c0.545,0,0.973-0.149,1.285-0.444c0.313-0.294,0.467-0.72,0.467-1.28v-3.205
				c0-0.06,0.021-0.11,0.061-0.156C197.344,89.604,197.396,89.582,197.459,89.582z"/>
			<path fill="#363636" d="M199.832,89.539h2.559c0.059,0,0.105,0.02,0.148,0.065c0.037,0.043,0.061,0.093,0.061,0.146
				c0,0.056-0.023,0.106-0.061,0.146c-0.043,0.038-0.09,0.061-0.148,0.061h-2.559c-0.053,0-0.1-0.022-0.145-0.064
				c-0.043-0.047-0.064-0.095-0.064-0.143c0-0.062,0.021-0.111,0.064-0.151C199.732,89.558,199.779,89.539,199.832,89.539z
				 M200.959,87.917c0.064,0,0.119,0.021,0.156,0.066c0.041,0.043,0.061,0.095,0.061,0.155v5.741c0,0.245,0.033,0.421,0.096,0.537
				c0.063,0.112,0.139,0.187,0.234,0.219c0.098,0.034,0.188,0.051,0.275,0.051c0.055,0,0.098-0.007,0.133-0.021
				c0.037-0.014,0.082-0.021,0.133-0.021c0.055,0,0.096,0.018,0.135,0.061c0.035,0.039,0.055,0.085,0.055,0.135
				c0,0.066-0.045,0.124-0.129,0.172c-0.084,0.05-0.189,0.072-0.314,0.072c-0.043,0-0.123-0.002-0.236-0.005
				c-0.113-0.006-0.236-0.04-0.363-0.101c-0.129-0.063-0.234-0.177-0.326-0.343c-0.086-0.166-0.129-0.409-0.129-0.732v-5.765
				c0-0.061,0.02-0.112,0.064-0.155C200.846,87.938,200.896,87.917,200.959,87.917z"/>
			<path fill="#363636" d="M207.074,95.195c-0.551,0-1.037-0.118-1.461-0.355c-0.422-0.235-0.752-0.567-0.998-0.997
				c-0.242-0.43-0.363-0.935-0.363-1.518c0-0.615,0.121-1.14,0.357-1.574c0.24-0.435,0.551-0.767,0.93-0.996
				c0.377-0.232,0.779-0.349,1.205-0.349c0.307,0,0.609,0.05,0.904,0.147c0.293,0.1,0.555,0.252,0.789,0.465
				c0.23,0.207,0.418,0.468,0.561,0.783c0.145,0.313,0.223,0.687,0.234,1.119c0,0.059-0.02,0.111-0.063,0.158
				c-0.045,0.05-0.096,0.071-0.154,0.071h-4.498l-0.066-0.419h4.441l-0.107,0.1v-0.198c-0.039-0.391-0.162-0.719-0.371-0.981
				c-0.211-0.265-0.459-0.464-0.752-0.601c-0.297-0.136-0.604-0.205-0.918-0.205c-0.221,0-0.451,0.051-0.695,0.149
				c-0.24,0.1-0.465,0.251-0.67,0.453c-0.207,0.203-0.375,0.456-0.504,0.766c-0.127,0.31-0.191,0.67-0.191,1.079
				c0,0.451,0.09,0.862,0.268,1.237c0.182,0.373,0.449,0.676,0.807,0.903c0.355,0.229,0.795,0.342,1.316,0.342
				c0.25,0,0.484-0.042,0.707-0.129c0.221-0.083,0.418-0.195,0.594-0.333c0.178-0.142,0.32-0.291,0.432-0.452
				c0.057-0.068,0.121-0.101,0.186-0.101c0.053,0,0.098,0.02,0.133,0.062c0.037,0.039,0.055,0.085,0.055,0.137
				c0,0.051-0.012,0.098-0.043,0.132c-0.229,0.296-0.52,0.554-0.877,0.771C207.902,95.084,207.51,95.195,207.074,95.195z"/>
			<path fill="#363636" d="M215.576,95.084c-0.066,0-0.123-0.021-0.162-0.065c-0.041-0.044-0.061-0.098-0.061-0.156v-5.059
				c0-0.06,0.021-0.11,0.068-0.156c0.041-0.043,0.094-0.065,0.154-0.065c0.064,0,0.117,0.022,0.158,0.065
				c0.039,0.046,0.063,0.097,0.063,0.156v1.862l-0.188,0.285c0-0.285,0.047-0.575,0.146-0.869s0.244-0.569,0.436-0.82
				c0.189-0.253,0.424-0.463,0.701-0.617c0.275-0.161,0.59-0.238,0.953-0.238c0.104,0,0.215,0.015,0.332,0.044
				c0.115,0.027,0.176,0.099,0.176,0.211c0,0.065-0.018,0.119-0.057,0.162c-0.037,0.046-0.084,0.069-0.145,0.069
				c-0.043,0-0.096-0.019-0.158-0.052c-0.063-0.035-0.154-0.05-0.27-0.05c-0.236,0-0.467,0.07-0.695,0.211
				c-0.23,0.137-0.436,0.323-0.623,0.555c-0.188,0.233-0.334,0.485-0.445,0.756c-0.109,0.271-0.164,0.537-0.164,0.795v2.755
				c0,0.059-0.023,0.112-0.068,0.156S215.633,95.084,215.576,95.084z"/>
			<path fill="#363636" d="M222.475,95.195c-0.551,0-1.037-0.118-1.461-0.355c-0.422-0.235-0.752-0.567-0.998-0.997
				c-0.242-0.43-0.363-0.935-0.363-1.518c0-0.615,0.121-1.14,0.359-1.574c0.24-0.435,0.547-0.767,0.926-0.996
				c0.379-0.232,0.779-0.349,1.205-0.349c0.313,0,0.613,0.05,0.904,0.147c0.297,0.1,0.559,0.252,0.791,0.465
				c0.229,0.207,0.416,0.468,0.561,0.783c0.143,0.313,0.223,0.687,0.236,1.119c0,0.059-0.02,0.111-0.064,0.158
				c-0.045,0.05-0.096,0.071-0.156,0.071h-4.498l-0.064-0.419h4.441l-0.107,0.1v-0.198c-0.037-0.391-0.162-0.719-0.369-0.981
				c-0.211-0.265-0.463-0.464-0.756-0.601c-0.295-0.136-0.602-0.205-0.918-0.205c-0.219,0-0.451,0.051-0.693,0.149
				c-0.242,0.1-0.465,0.251-0.67,0.453c-0.207,0.203-0.375,0.456-0.504,0.766c-0.127,0.31-0.191,0.67-0.191,1.079
				c0,0.451,0.09,0.862,0.27,1.237c0.18,0.373,0.445,0.676,0.803,0.903c0.357,0.229,0.799,0.342,1.318,0.342
				c0.25,0,0.486-0.042,0.705-0.129c0.221-0.083,0.418-0.195,0.596-0.333c0.176-0.142,0.32-0.291,0.43-0.452
				c0.061-0.068,0.121-0.101,0.189-0.101c0.051,0,0.094,0.02,0.131,0.062c0.037,0.039,0.057,0.085,0.057,0.137
				c0,0.051-0.016,0.098-0.045,0.132c-0.229,0.296-0.521,0.554-0.879,0.771C223.303,95.084,222.908,95.195,222.475,95.195z"/>
			<path fill="#363636" d="M226.643,94.201c-0.051-0.089-0.076-0.159-0.072-0.216c0.004-0.054,0.033-0.099,0.082-0.136
				c0.037-0.039,0.088-0.054,0.15-0.052c0.063,0.004,0.115,0.031,0.16,0.082c0.189,0.273,0.438,0.496,0.732,0.664
				c0.297,0.17,0.648,0.253,1.053,0.253c0.242,0,0.477-0.041,0.699-0.122c0.225-0.081,0.41-0.2,0.553-0.361
				c0.145-0.164,0.215-0.362,0.215-0.597c0-0.251-0.07-0.45-0.211-0.603c-0.139-0.15-0.318-0.269-0.539-0.357
				c-0.219-0.088-0.451-0.162-0.693-0.221c-0.26-0.065-0.504-0.14-0.732-0.227c-0.234-0.081-0.436-0.189-0.613-0.318
				c-0.178-0.128-0.316-0.281-0.418-0.457c-0.104-0.178-0.156-0.385-0.156-0.63c0-0.286,0.078-0.544,0.234-0.771
				c0.152-0.229,0.369-0.406,0.65-0.535c0.277-0.13,0.6-0.192,0.967-0.192c0.178,0,0.363,0.021,0.563,0.066
				c0.199,0.043,0.398,0.119,0.596,0.226s0.383,0.257,0.551,0.446c0.061,0.044,0.088,0.097,0.082,0.161
				c-0.002,0.062-0.029,0.122-0.082,0.17c-0.043,0.028-0.09,0.044-0.143,0.044s-0.096-0.021-0.133-0.065
				c-0.189-0.213-0.41-0.37-0.666-0.476c-0.252-0.103-0.525-0.155-0.813-0.155c-0.24,0-0.465,0.043-0.678,0.125
				c-0.207,0.078-0.377,0.197-0.51,0.357c-0.133,0.157-0.199,0.356-0.199,0.599c0.016,0.229,0.094,0.416,0.236,0.562
				c0.143,0.149,0.336,0.269,0.572,0.365c0.238,0.096,0.51,0.184,0.811,0.265c0.244,0.06,0.469,0.128,0.68,0.204
				c0.209,0.076,0.395,0.175,0.549,0.294c0.16,0.116,0.285,0.263,0.375,0.439c0.094,0.176,0.141,0.397,0.141,0.66
				c0,0.311-0.086,0.577-0.25,0.8c-0.166,0.224-0.393,0.396-0.684,0.519c-0.291,0.123-0.621,0.184-0.998,0.184
				c-0.383,0-0.748-0.077-1.1-0.232C227.248,94.808,226.93,94.554,226.643,94.201z"/>
			<path fill="#363636" d="M237.996,92.305c0,0.546-0.117,1.037-0.35,1.473c-0.236,0.438-0.559,0.785-0.967,1.036
				c-0.406,0.253-0.875,0.382-1.393,0.382s-0.98-0.129-1.391-0.382c-0.41-0.251-0.736-0.599-0.977-1.036
				c-0.238-0.436-0.357-0.927-0.357-1.473c0-0.55,0.119-1.045,0.357-1.482c0.24-0.436,0.566-0.783,0.977-1.036
				c0.41-0.255,0.873-0.38,1.391-0.38s0.986,0.125,1.393,0.38c0.408,0.253,0.73,0.601,0.967,1.036
				C237.879,91.26,237.996,91.755,237.996,92.305z M237.557,92.305c0-0.477-0.098-0.9-0.291-1.271
				c-0.195-0.371-0.465-0.666-0.805-0.885c-0.344-0.216-0.736-0.325-1.174-0.325c-0.436,0-0.826,0.109-1.17,0.325
				c-0.346,0.219-0.615,0.514-0.816,0.885c-0.197,0.371-0.297,0.795-0.297,1.271c0,0.471,0.1,0.891,0.297,1.263
				c0.201,0.372,0.471,0.667,0.816,0.882c0.344,0.216,0.734,0.326,1.17,0.326c0.438,0,0.83-0.11,1.174-0.326
				c0.34-0.215,0.609-0.51,0.805-0.882C237.459,93.195,237.557,92.775,237.557,92.305z"/>
			<path fill="#363636" d="M240.809,94.862c0,0.059-0.023,0.112-0.064,0.156c-0.047,0.044-0.096,0.065-0.156,0.065
				c-0.066,0-0.121-0.021-0.16-0.065c-0.041-0.044-0.061-0.098-0.061-0.156v-7.718c0-0.059,0.02-0.108,0.064-0.153
				s0.098-0.066,0.156-0.066c0.068,0,0.119,0.021,0.162,0.066c0.035,0.045,0.059,0.095,0.059,0.153V94.862z"/>
			<path fill="#363636" d="M247.621,89.582c0.066,0,0.119,0.022,0.16,0.065c0.041,0.046,0.061,0.097,0.061,0.156v3.205
				c0,0.717-0.201,1.251-0.602,1.606c-0.398,0.357-0.932,0.535-1.59,0.535s-1.186-0.178-1.584-0.535
				c-0.402-0.355-0.602-0.89-0.602-1.606v-3.205c0-0.06,0.021-0.11,0.066-0.156c0.045-0.043,0.096-0.065,0.154-0.065
				c0.066,0,0.119,0.022,0.158,0.065c0.041,0.046,0.063,0.097,0.063,0.156v3.205c0,0.561,0.156,0.986,0.469,1.28
				c0.313,0.295,0.738,0.444,1.275,0.444c0.541,0,0.971-0.149,1.281-0.444c0.314-0.294,0.469-0.72,0.469-1.28v-3.205
				c0-0.06,0.021-0.11,0.061-0.156C247.504,89.604,247.557,89.582,247.621,89.582z"/>
			<path fill="#363636" d="M249.992,89.539h2.557c0.059,0,0.107,0.02,0.15,0.065c0.039,0.043,0.061,0.093,0.061,0.146
				c0,0.056-0.021,0.106-0.061,0.146c-0.043,0.038-0.092,0.061-0.15,0.061h-2.557c-0.053,0-0.1-0.022-0.145-0.064
				c-0.043-0.047-0.066-0.095-0.066-0.143c0-0.062,0.023-0.111,0.066-0.151C249.893,89.558,249.939,89.539,249.992,89.539z
				 M251.117,87.917c0.066,0,0.117,0.021,0.158,0.066c0.041,0.043,0.061,0.095,0.061,0.155v5.741c0,0.245,0.033,0.421,0.094,0.537
				c0.064,0.112,0.141,0.187,0.236,0.219c0.096,0.034,0.188,0.051,0.275,0.051c0.053,0,0.098-0.007,0.133-0.021
				c0.037-0.014,0.082-0.021,0.133-0.021c0.055,0,0.094,0.018,0.133,0.061c0.037,0.039,0.055,0.085,0.055,0.135
				c0,0.066-0.043,0.124-0.125,0.172c-0.086,0.05-0.191,0.072-0.316,0.072c-0.041,0-0.121-0.002-0.236-0.005
				c-0.115-0.006-0.236-0.04-0.365-0.101c-0.127-0.063-0.234-0.177-0.324-0.343c-0.088-0.166-0.131-0.409-0.131-0.732v-5.765
				c0-0.061,0.02-0.112,0.064-0.155C251.006,87.938,251.057,87.917,251.117,87.917z"/>
			<path fill="#363636" d="M255.031,88.656c-0.121,0-0.213-0.033-0.283-0.099c-0.07-0.064-0.104-0.152-0.104-0.255v-0.089
				c0-0.102,0.035-0.188,0.107-0.251c0.076-0.069,0.172-0.1,0.289-0.1c0.102,0,0.189,0.03,0.26,0.1
				c0.068,0.063,0.105,0.149,0.105,0.251v0.089c0,0.103-0.037,0.19-0.105,0.255C255.23,88.623,255.141,88.656,255.031,88.656z
				 M255.25,94.862c0,0.059-0.021,0.112-0.066,0.156c-0.043,0.044-0.096,0.065-0.152,0.065c-0.068,0-0.123-0.021-0.164-0.065
				c-0.039-0.044-0.059-0.098-0.059-0.156v-5.235c0-0.061,0.021-0.111,0.066-0.154c0.045-0.046,0.096-0.066,0.156-0.066
				c0.064,0,0.117,0.021,0.16,0.066c0.039,0.043,0.059,0.094,0.059,0.154V94.862z"/>
			<path fill="#363636" d="M263,92.305c0,0.546-0.115,1.037-0.354,1.473c-0.234,0.438-0.557,0.785-0.965,1.036
				c-0.408,0.253-0.873,0.382-1.393,0.382c-0.516,0-0.977-0.129-1.389-0.382c-0.412-0.251-0.738-0.599-0.977-1.036
				c-0.238-0.436-0.359-0.927-0.359-1.473c0-0.55,0.121-1.045,0.359-1.482c0.238-0.436,0.564-0.783,0.977-1.036
				c0.412-0.255,0.873-0.38,1.389-0.38c0.52,0,0.984,0.125,1.393,0.38c0.408,0.253,0.73,0.601,0.965,1.036
				C262.885,91.26,263,91.755,263,92.305z M262.561,92.305c0-0.477-0.102-0.9-0.293-1.271c-0.195-0.371-0.463-0.666-0.807-0.885
				c-0.34-0.216-0.732-0.325-1.172-0.325c-0.434,0-0.826,0.109-1.17,0.325c-0.344,0.219-0.615,0.514-0.814,0.885
				s-0.301,0.795-0.301,1.271c0,0.471,0.102,0.891,0.301,1.263s0.471,0.667,0.814,0.882c0.344,0.216,0.736,0.326,1.17,0.326
				c0.439,0,0.832-0.11,1.172-0.326c0.344-0.215,0.611-0.51,0.807-0.882C262.459,93.195,262.561,92.775,262.561,92.305z"/>
			<path fill="#363636" d="M267.818,89.406c0.463,0,0.838,0.092,1.127,0.275c0.293,0.185,0.506,0.434,0.641,0.749
				c0.135,0.318,0.205,0.67,0.205,1.059v3.373c0,0.059-0.021,0.112-0.064,0.156c-0.045,0.044-0.098,0.065-0.156,0.065
				c-0.066,0-0.119-0.021-0.16-0.065c-0.039-0.044-0.059-0.098-0.059-0.156v-3.328c0-0.317-0.055-0.604-0.162-0.86
				c-0.105-0.256-0.275-0.465-0.508-0.618c-0.23-0.151-0.533-0.232-0.908-0.232c-0.324,0-0.639,0.081-0.949,0.232
				c-0.307,0.153-0.563,0.362-0.766,0.618c-0.201,0.257-0.303,0.543-0.303,0.86v3.328c0,0.059-0.021,0.112-0.066,0.156
				s-0.096,0.065-0.156,0.065c-0.064,0-0.117-0.021-0.156-0.065c-0.041-0.044-0.061-0.098-0.061-0.156v-5.059
				c0-0.06,0.02-0.11,0.064-0.156c0.043-0.043,0.098-0.065,0.152-0.065c0.068,0,0.121,0.022,0.16,0.065
				c0.041,0.046,0.063,0.097,0.063,0.156v1.08l-0.275,0.528c0-0.263,0.07-0.519,0.209-0.761c0.143-0.24,0.322-0.458,0.551-0.643
				c0.229-0.191,0.48-0.336,0.756-0.443C267.271,89.459,267.545,89.406,267.818,89.406z"/>
		</g>
	</g>
	<path fill="none" d="M199.975,58.869c-0.02-0.172-0.059-0.33-0.096-0.493C199.912,58.54,199.938,58.706,199.975,58.869z"/>
	<g>
		<g>
			<path fill="#555655" d="M57.173,38.813c4.502,4.505,6.756,9.949,6.756,16.331v20.361c0,0.745-0.269,1.387-0.805,1.924
				c-0.538,0.536-1.178,0.804-1.925,0.804h-0.133c-0.747,0-1.388-0.268-1.924-0.804c-0.537-0.537-0.805-1.179-0.805-1.924v-5.059
				c-5.848,5.193-11.678,7.786-17.496,7.786c-6.384,0-11.828-2.252-16.333-6.756c-4.504-4.503-6.755-9.947-6.755-16.333
				c0-6.381,2.251-11.826,6.755-16.331c4.504-4.504,9.949-6.757,16.333-6.757S52.668,34.309,57.173,38.813z M28.446,42.795
				c-3.401,3.431-5.102,7.546-5.102,12.348c0,4.836,1.701,8.966,5.102,12.395c3.43,3.402,7.561,5.103,12.394,5.103
				c4.832,0,8.948-1.7,12.35-5.103c3.43-3.429,5.146-7.559,5.146-12.395c0-4.802-1.716-8.917-5.146-12.348
				c-3.371-3.43-7.488-5.146-12.35-5.146C36.007,37.649,31.876,39.365,28.446,42.795z"/>
			<path fill="#555655" d="M114.983,13.711c0.745,0,1.387,0.253,1.924,0.761c0.537,0.537,0.807,1.192,0.807,1.969V55.28
				c-0.03,6.325-2.298,11.739-6.802,16.243c-4.504,4.474-9.935,6.71-16.289,6.71c-6.384,0-11.827-2.252-16.331-6.756
				c-4.504-4.503-6.757-9.947-6.757-16.333c0-6.381,2.253-11.826,6.757-16.331c4.504-4.504,9.947-6.757,16.331-6.757
				c5.818,0,11.65,2.595,17.497,7.786V16.44c0-0.776,0.268-1.432,0.805-1.969c0.538-0.507,1.178-0.761,1.925-0.761H114.983z
				 M82.23,42.885c-3.399,3.43-5.101,7.562-5.101,12.395c0,4.803,1.702,8.918,5.101,12.348c3.431,3.433,7.562,5.147,12.393,5.147
				c4.863,0,8.979-1.715,12.351-5.147c3.43-3.43,5.146-7.545,5.146-12.348c0-4.833-1.716-8.964-5.146-12.395
				c-3.372-3.43-7.488-5.146-12.351-5.146C89.792,37.739,85.661,39.455,82.23,42.885z"/>
			<path fill="#555655" d="M146.261,32.056c0.775,0,1.432,0.269,1.968,0.805c0.506,0.539,0.762,1.195,0.762,1.97v0.089
				c0,0.776-0.256,1.417-0.762,1.924c-0.536,0.536-1.193,0.805-1.968,0.805h-2.551c-3.163,0-5.861,1.119-8.099,3.356
				c-2.208,2.237-3.326,4.937-3.357,8.099v26.4c0,0.745-0.268,1.387-0.806,1.924c-0.536,0.536-1.178,0.804-1.923,0.804h-0.134
				c-0.747,0-1.388-0.268-1.924-0.804c-0.538-0.537-0.806-1.179-0.806-1.924v-26.4c0.059-4.743,1.715-8.771,4.967-12.081
				c3.311-3.312,7.338-4.967,12.081-4.967H146.261z"/>
		</g>
	</g>
	<g>
		<g>
			<path fill="#555655" d="M258.885,37.649c-2.027,0-3.76,0.715-5.193,2.148c-1.43,1.462-2.145,3.192-2.145,5.19
				c0,2.863,1.34,5.012,4.025,6.444c0.777,0.387,3.447,1.194,8.01,2.415c3.133,0.896,5.385,2.016,6.758,3.355
				c1.938,1.819,2.908,4.52,2.908,8.1c0,3.579-1.254,6.638-3.76,9.173c-2.533,2.506-5.594,3.758-9.172,3.758h-11.678
				c-0.748,0-1.387-0.268-1.922-0.804c-0.541-0.537-0.809-1.179-0.809-1.924v-0.09c0-0.775,0.268-1.434,0.809-1.969
				c0.535-0.536,1.174-0.806,1.922-0.806h12.125c2.029,0,3.758-0.718,5.189-2.147c1.434-1.433,2.148-3.162,2.148-5.191
				c0-2.774-1.357-4.815-4.07-6.129c-0.568-0.27-3.223-1.075-7.965-2.416c-3.074-0.926-5.326-2.06-6.756-3.402
				c-1.941-1.938-2.91-4.727-2.91-8.367c0-3.58,1.252-6.623,3.758-9.128c2.537-2.535,5.594-3.803,9.172-3.803h8.234
				c0.775,0,1.432,0.269,1.969,0.805c0.539,0.539,0.807,1.195,0.807,1.97v0.089c0,0.747-0.268,1.388-0.807,1.924
				c-0.537,0.536-1.193,0.805-1.969,0.805H258.885z"/>
		</g>
	</g>
	<path fill="#555655" d="M230.473,38.145c-4.24-4.238-9.361-6.359-15.367-6.359c-2.961,0-5.711,0.518-8.242,1.55
		c-2.604,1.059-4.977,2.661-7.125,4.809c-0.186,0.185-0.361,0.374-0.539,0.562c0.059,0.085,0.109,0.175,0.166,0.262
		c0.98,1.508,1.801,3.128,2.418,4.847c0.494-0.666,1.049-1.307,1.658-1.925c3.23-3.228,7.117-4.842,11.664-4.842
		c4.576,0,9.381,1.616,12.551,4.843c3.229,3.228,4.842,7.101,4.842,11.62c0,4.546-1.613,8.436-4.842,11.662
		c-2.725,2.728-6.875,4.286-10.576,4.689c-0.281,1.869-0.787,3.661-1.48,5.356c5.309-0.141,10.334-1.175,15.967-5.473v-0.239v0.607
		v3.499v0.521v1.619c0,0.7,0.252,1.303,0.758,1.81c0.504,0.506,1.109,0.757,1.811,0.757h0.127c0.701,0,1.303-0.251,1.811-0.757
		c0.504-0.507,0.756-1.109,0.756-1.81v-6.103v1.164v-8.039v0.7v-9.965C236.828,47.505,234.709,42.383,230.473,38.145z"/>
	<path fill="#93C43E" d="M210.025,68.632c-2.578-0.813-4.904-2.242-6.973-4.292c-2.6-2.621-4.203-5.657-4.814-9.096
		c-0.188-1.061-0.287-2.16-0.287-3.3c0-0.287,0.008-0.573,0.023-0.856c-0.232-1.561-0.621-3.056-1.154-4.489
		c-0.549-1.477-0.893-2.511-1.76-3.854c-1.311,2.935-2.416,5.81-2.416,9.226c0,7.211,3.248,13.676,8.359,18.01
		c1.59,1.298,3.281,2.345,5.076,3.145c0.018-0.011,0.031-0.027,0.045-0.041c1.352,0.631,2.766,1.112,4.246,1.443
		c0.828-1.654,1.426-3.445,1.756-5.33c-0.738-0.119-1.459-0.275-2.156-0.485C209.988,68.687,210.01,68.659,210.025,68.632z"/>
	<path fill="#555655" d="M159.496,52.02c-0.023,0.164-0.057,0.498-0.057,0.498c-0.076,0.693-0.119,1.4-0.119,2.126
		c0,4.814,1.67,8.932,5.014,12.353c1.848,1.86,3.904,3.2,6.16,4.042c1.773,0.658,3.672,1.001,5.697,1.037
		c0.107,0,0.215,0.007,0.326,0.007c1.678,0,3.281-0.136,4.807-0.452c2.967-0.726,4.695-1.79,6.994-4.12
		c1.408-1.428,2.514-2.981,3.332-4.652c1.781,3.52,4.242,6.625,7.225,9.125v3.465c0,0.743-0.266,1.383-0.791,1.917
		c-0.529,0.536-1.162,0.804-1.893,0.804h-0.133c-0.734,0-1.361-0.268-1.891-0.804c-0.523-0.534-0.789-1.174-0.789-1.917v-5.04
		c-0.693,0.622-1.387,1.204-2.076,1.749c0.006,0.008,0.01,0.017,0.014,0.021c-2.094,1.712-4.203,2.999-6.313,3.938
		c-2.219,1.026-3.531,1.208-5.746,1.465c-0.725,0.083-1.449,0.128-2.172,0.128c-0.744,0-1.467-0.047-2.182-0.111
		c-0.65-0.041-1.291-0.109-1.922-0.202c-4.771-0.698-8.949-2.853-12.52-6.475c-4.43-4.487-6.641-9.915-6.641-16.277
		c0-1.908,0.203-3.729,0.602-5.469l5.049,3.01"/>
	<path fill="#93C43E" d="M191.293,37.979c-0.998-0.917-2.076-1.759-3.217-2.513c-0.133-0.091-0.27-0.177-0.408-0.265
		c-3.609-2.291-7.346-3.379-11.652-3.379c-4.477,0-8.477,1.152-12.012,3.438c-0.053,0.033-0.105,0.068-0.158,0.101
		c-0.08,0.052-0.158,0.102-0.232,0.151c-1.43,0.921-2.783,2.02-4.057,3.313c-1.598,1.619-2.279,2.742-3.301,4.605
		c-0.08,0.143-0.158,0.289-0.232,0.433c1.309,1.377,2.809,2.565,4.455,3.515c0.063-0.142,0.127-0.286,0.195-0.425
		c0.814-1.72,1.32-2.692,2.756-4.16c3.369-3.418,7.43-5.128,12.182-5.128c3.793,0,6.936,0.626,9.916,2.718
		c0.129,0.089,0.252,0.184,0.377,0.277c0.307,0.229,0.609,0.466,0.9,0.722c0.303,0.267,0.602,0.542,0.889,0.838
		c0.363,0.365,0.701,0.743,1.02,1.123c0.127,0.155,0.248,0.308,0.373,0.463c0.861-2.138,1.695-3.56,2.564-5.49
		C191.533,38.202,191.414,38.087,191.293,37.979z"/>
</g>
</svg>
