<?xml version="1.0" encoding="utf-8"?>
<!-- Generator: Adobe Illustrator 16.0.0, SVG Export Plug-In . SVG Version: 6.00 Build 0)  -->
<!DOCTYPE svg PUBLIC "-//W3C//DTD SVG 1.1//EN" "http://www.w3.org/Graphics/SVG/1.1/DTD/svg11.dtd">
<svg version="1.1" xmlns="http://www.w3.org/2000/svg" xmlns:xlink="http://www.w3.org/1999/xlink" x="0px" y="0px"
	 width="841.89px" height="595.28px" viewBox="0 0 841.89 595.28" enable-background="new 0 0 841.89 595.28" xml:space="preserve">
<g id="Darkoutline_logo" display="none">
	<g display="inline">
		<g>
			<text transform="matrix(1 0 0 1 -1655.564 381.0088)" fill="#363636" font-family="'Roboto-Regular'" font-size="26">Realtime Environment for Dispute Resolution </text>
		</g>
		<path fill="#363636" stroke="#353535" stroke-width="3" stroke-miterlimit="10" d="M-1598.339,201.396l54.338,142.48h-5.072
			l-20.575-53.059h-58.104l-20.286,53.059h-4.492L-1598.339,201.396z M-1598.773,214.196l-27.096,71.24h54.481L-1598.773,214.196z"
			/>
		<path fill="#363636" stroke="#353535" stroke-width="2.5" stroke-miterlimit="10" d="M-1524.531,201.396h6.279
			c21.974,0,39.696,7.039,53.17,21.107c13.471,14.074,20.209,30.947,20.209,50.625c0,19.676-6.705,36.52-20.11,50.527
			c-13.409,14.012-31.166,21.014-53.269,21.014h-6.279V201.396z M-1516.683,207.126h-1.569v131.621h1.569
			c19.096,0,34.758-6.428,46.99-19.293c12.229-12.863,18.345-28.305,18.345-46.326c0-18.02-6.116-33.525-18.345-46.518
			C-1481.925,213.622-1497.587,207.126-1516.683,207.126z"/>
		<path fill="none" d="M-1230.936,302.964c-0.045-0.369-0.125-0.709-0.207-1.053
			C-1231.072,302.261-1231.014,302.616-1230.936,302.964z"/>
		<path fill="#363636" stroke="#353535" stroke-width="2.5" stroke-miterlimit="10" d="M-1396.902,282.714h2.08
			c22.964,0,41.889-14.59,41.889-40.766s-18.925-40.553-41.889-40.553h-31.905v143.111h6.804v-60.143l55.656,60.48h8.782
			l-57.892-62.131H-1396.902z M-1419.924,207.833h25.102c20.837,0,35.447,14.375,35.447,34.115s-14.61,34.33-35.447,34.33h-25.102
			V207.833z"/>
		<path fill="#353535" d="M-1058.165,288.479c-2.715-5.348-7.307-9.711-11.005-12.915c-3.96-3.427-8.435-6.713-13.301-9.77
			c-4.835-3.032-9.734-5.918-14.562-8.577c-4.776-2.631-9.128-5.324-12.928-8.001c-8.633-6.156-13.011-12.999-13.011-20.338v-0.928
			c0-6.231,2.038-10.992,6.23-14.553c4.195-3.562,9.354-5.367,15.334-5.367c6.059,0,11.604,1.442,16.483,4.286
			c4.871,2.845,8.783,6.813,11.626,11.796l2.336,4.094v-14.634l-0.287-0.347c-7.177-8.68-16.998-13.08-29.189-13.08
			c-8.753,0-16.234,2.402-22.237,7.141c-6.088,4.808-9.175,11.822-9.175,20.85v1.299c0,5.814,1.769,11.244,5.257,16.14
			c3.436,4.822,7.786,8.872,12.931,12.036c4.921,3.033,10.299,6.315,16.442,10.034c5.927,3.592,11.444,7.052,16.399,10.282
			c6.057,3.954,10.513,8.08,13.244,12.263c3.201,4.911,4.824,10.398,4.824,16.31v1.113c0,9.47-3.428,17.145-10.188,22.812
			c-6.976,5.845-15.102,8.566-24.232,8.063c-9.693-0.528-14.217-2.029-20.166-6.694c-3.409-2.676-7.869-6.47-12.13-12.103
			l-2.247-2.971v13.438l0.324,0.357c8.52,9.397,17.31,15.785,32.521,16.415l0.052,0.001c12.49,0,23.136-3.596,31.641-10.688
			c8.571-7.147,12.918-16.905,12.918-29.001v-1.857C-1054.26,299.271-1055.573,293.584-1058.165,288.479z"/>
		<g>
			<path fill="#363636" d="M-1255.211,321.804c-0.006,0.008-0.012,0.014-0.016,0.02h-0.014v0.014
				c-7.805,9.387-19.613,15.398-32.832,15.398c-23.451,0-42.531-18.871-42.531-42.064c0-3.908,0.553-7.689,1.566-11.283
				c-2.193-1.129-4.223-2.533-6.033-4.178c-1.635,4.863-2.533,10.059-2.533,15.461c0,27.055,22.221,49.064,49.531,49.064
				c12.59,0,24.09-4.684,32.832-12.379v12.967h9.086v-23h-9.031L-1255.211,321.804z"/>
			<path fill="#353535" d="M-1244.904,346.073h-11.586v-11.547c-8.967,7.086-20.079,10.959-31.582,10.959
				c-28.001,0-50.781-22.571-50.781-50.314c0-5.395,0.874-10.73,2.599-15.859l0.609-1.813l1.416,1.286
				c1.727,1.568,3.666,2.911,5.765,3.991l0.908,0.468l-0.277,0.982c-1.009,3.575-1.52,7.257-1.52,10.944
				c0,22.505,18.519,40.814,41.281,40.814c12.206,0,23.69-5.317,31.582-14.604l0.3-0.255l0.379-0.548l0.41-0.036l0.634,0.03h9.863
				V346.073z M-1253.99,343.573h6.586v-20.5h-7.243c-8.365,9.802-20.515,15.412-33.425,15.412
				c-24.141,0-43.781-19.431-43.781-43.314c0-3.583,0.454-7.161,1.352-10.65c-1.387-0.775-2.706-1.658-3.941-2.639
				c-1.269,4.323-1.91,8.784-1.91,13.289c0,26.365,21.659,47.814,48.281,47.814c11.799,0,23.166-4.285,32.006-12.067l2.076-1.827
				V343.573z"/>
		</g>
		<path fill="#353535" d="M-1147.631,295.171c0-1.938-0.12-3.887-0.368-5.953c-0.691-5.781-2.378-11.349-5.013-16.548
			c-8.695-17.156-26.092-27.813-45.402-27.813c-16.617,0-32.221,8.124-41.739,21.73l-0.479,0.687l5.675,8.858l1.037-1.728
			c7.425-12.366,21.03-20.048,35.507-20.048c20.708,0,38.306,15.308,40.935,35.606c0.231,1.781,0.305,3.571,0.349,5.241
			c0.709,27.039-19.232,39.944-39.311,40.739c-0.203,0.009-0.407,0.011-0.612,0.015l-1.38,0.029l-0.196,0.98
			c-0.183,0.909-0.453,1.798-0.807,2.641c-0.563,1.349-1.347,2.605-2.33,3.737l-1.681,1.936l2.561,0.132
			c0.369,0.02,0.741,0.029,1.114,0.04l0.525,0.015c0.277,0.009,0.554,0.018,0.833,0.018c16.598,0,28.415-4.144,38.928-13.766
			l0.27,14.154h11.323l-0.097-44.827C-1147.752,299.036-1147.631,297.06-1147.631,295.171z"/>
		<g>
			<path fill="#93C43E" d="M-1208.4,333.851c-14.579-5.042-24.898-19.219-28.313-38.894c-0.486-2.803-1.825-8.785-2.862-13.31
				l-0.143-0.621c-3.38,2.53-6.06,5.926-7.725,9.842l-0.009,0.022l0.074,0.357c0.127,0.61,3.136,15.007,5.157,20.291
				c5.414,14.154,16.224,25.609,28.916,30.642l0.724,0.287l0.576-0.522c1.067-0.967,1.99-2.045,2.743-3.204
				c0.645-0.993,1.191-2.097,1.626-3.277l0.44-1.196L-1208.4,333.851z"/>
		</g>
		<g>
			<path fill="#93C43E" d="M-1288.072,243.856c-16.568,0-31.826,7.888-41.374,21.223c2.804,1.591,5.246,3.725,7.192,6.255
				c7.654-11.153,20.507-17.978,34.182-17.978c15.662,0,30.104,9.397,36.902,23.964c1.325-3.605,3.501-6.854,6.344-9.455
				C-1254.057,253.013-1270.466,243.856-1288.072,243.856z"/>
		</g>
	</g>
</g>
<g id="Layer_2" display="none">
	<g display="inline">
		<g>
			<text transform="matrix(1 0 0 1 -1655.564 381.0088)" fill="#363636" font-family="'Roboto-Regular'" font-size="26">Realtime Environment for Dispute Resolution </text>
		</g>
		<path fill="#363636" stroke="#353535" stroke-width="3" stroke-miterlimit="10" d="M-1598.339,201.396l54.338,142.48h-5.072
			l-20.575-53.059h-58.104l-20.286,53.059h-4.492L-1598.339,201.396z M-1598.773,214.196l-27.096,71.24h54.481L-1598.773,214.196z"
			/>
		<path fill="#363636" stroke="#353535" stroke-width="2.5" stroke-miterlimit="10" d="M-1524.531,201.396h6.279
			c21.974,0,39.696,7.039,53.17,21.107c13.471,14.074,20.209,30.947,20.209,50.625c0,19.676-6.705,36.52-20.11,50.527
			c-13.409,14.012-31.166,21.014-53.269,21.014h-6.279V201.396z M-1516.683,207.126h-1.569v131.621h1.569
			c19.096,0,34.758-6.428,46.99-19.293c12.229-12.863,18.345-28.305,18.345-46.326c0-18.02-6.116-33.525-18.345-46.518
			C-1481.925,213.622-1497.587,207.126-1516.683,207.126z"/>
		<path fill="none" d="M-1230.936,302.964c-0.045-0.369-0.125-0.709-0.207-1.053
			C-1231.072,302.261-1231.014,302.616-1230.936,302.964z"/>
		<path fill="#363636" stroke="#353535" stroke-width="2.5" stroke-miterlimit="10" d="M-1396.902,282.714h2.08
			c22.964,0,41.889-14.59,41.889-40.766s-18.925-40.553-41.889-40.553h-31.905v143.111h6.804v-60.143l55.656,60.48h8.782
			l-57.892-62.131H-1396.902z M-1419.924,207.833h25.102c20.837,0,35.447,14.375,35.447,34.115s-14.61,34.33-35.447,34.33h-25.102
			V207.833z"/>
		<path fill="#353535" d="M-1058.165,288.479c-2.715-5.348-7.307-9.711-11.005-12.915c-3.96-3.427-8.435-6.713-13.301-9.77
			c-4.835-3.032-9.734-5.918-14.562-8.577c-4.776-2.631-9.128-5.324-12.928-8.001c-8.633-6.156-13.011-12.999-13.011-20.338v-0.928
			c0-6.231,2.038-10.992,6.23-14.553c4.195-3.562,9.354-5.367,15.334-5.367c6.059,0,11.604,1.442,16.483,4.286
			c4.871,2.845,8.783,6.813,11.626,11.796l2.336,4.094v-14.634l-0.287-0.347c-7.177-8.68-16.998-13.08-29.189-13.08
			c-8.753,0-16.234,2.402-22.237,7.141c-6.088,4.808-9.175,11.822-9.175,20.85v1.299c0,5.814,1.769,11.244,5.257,16.14
			c3.436,4.822,7.786,8.872,12.931,12.036c4.921,3.033,10.299,6.315,16.442,10.034c5.927,3.592,11.444,7.052,16.399,10.282
			c6.057,3.954,10.513,8.08,13.244,12.263c3.201,4.911,4.824,10.398,4.824,16.31v1.113c0,9.47-3.428,17.145-10.188,22.812
			c-6.976,5.845-15.102,8.566-24.232,8.063c-9.693-0.528-14.217-2.029-20.166-6.694c-3.409-2.676-7.869-6.47-12.13-12.103
			l-2.247-2.971v13.438l0.324,0.357c8.52,9.397,17.31,15.785,32.521,16.415l0.052,0.001c12.49,0,23.136-3.596,31.641-10.688
			c8.571-7.147,12.918-16.905,12.918-29.001v-1.857C-1054.26,299.271-1055.573,293.584-1058.165,288.479z"/>
		<g>
			<path fill="#363636" d="M-1255.211,321.804c-0.006,0.008-0.012,0.014-0.016,0.02h-0.014v0.014
				c-7.805,9.387-19.613,15.398-32.832,15.398c-23.451,0-42.531-18.871-42.531-42.064c0-3.908,0.553-7.689,1.566-11.283
				c-2.193-1.129-4.223-2.533-6.033-4.178c-1.635,4.863-2.533,10.059-2.533,15.461c0,27.055,22.221,49.064,49.531,49.064
				c12.59,0,24.09-4.684,32.832-12.379v12.967h9.086v-23h-9.031L-1255.211,321.804z"/>
			<path fill="#353535" d="M-1244.904,346.073h-11.586v-11.547c-8.967,7.086-20.079,10.959-31.582,10.959
				c-28.001,0-50.781-22.571-50.781-50.314c0-5.395,0.874-10.73,2.599-15.859l0.609-1.813l1.416,1.286
				c1.727,1.568,3.666,2.911,5.765,3.991l0.908,0.468l-0.277,0.982c-1.009,3.575-1.52,7.257-1.52,10.944
				c0,22.505,18.519,40.814,41.281,40.814c12.206,0,23.69-5.317,31.582-14.604l0.3-0.255l0.379-0.548l0.41-0.036l0.634,0.03h9.863
				V346.073z M-1253.99,343.573h6.586v-20.5h-7.243c-8.365,9.802-20.515,15.412-33.425,15.412
				c-24.141,0-43.781-19.431-43.781-43.314c0-3.583,0.454-7.161,1.352-10.65c-1.387-0.775-2.706-1.658-3.941-2.639
				c-1.269,4.323-1.91,8.784-1.91,13.289c0,26.365,21.659,47.814,48.281,47.814c11.799,0,23.166-4.285,32.006-12.067l2.076-1.827
				V343.573z"/>
		</g>
		<path fill="#353535" d="M-1147.631,295.171c0-1.938-0.12-3.887-0.368-5.953c-0.691-5.781-2.378-11.349-5.013-16.548
			c-8.695-17.156-26.092-27.813-45.402-27.813c-16.617,0-32.221,8.124-41.739,21.73l-0.479,0.687l5.675,8.858l1.037-1.728
			c7.425-12.366,21.03-20.048,35.507-20.048c20.708,0,38.306,15.308,40.935,35.606c0.231,1.781,0.305,3.571,0.349,5.241
			c0.709,27.039-19.232,39.944-39.311,40.739c-0.203,0.009-0.407,0.011-0.612,0.015l-1.38,0.029l-0.196,0.98
			c-0.183,0.909-0.453,1.798-0.807,2.641c-0.563,1.349-1.347,2.605-2.33,3.737l-1.681,1.936l2.561,0.132
			c0.369,0.02,0.741,0.029,1.114,0.04l0.525,0.015c0.277,0.009,0.554,0.018,0.833,0.018c16.598,0,28.415-4.144,38.928-13.766
			l0.27,14.154h11.323l-0.097-44.827C-1147.752,299.036-1147.631,297.06-1147.631,295.171z"/>
		<g>
			<path fill="#93C43E" d="M-1208.4,333.851c-14.579-5.042-24.898-19.219-28.313-38.894c-0.486-2.803-1.825-8.785-2.862-13.31
				l-0.143-0.621c-3.38,2.53-6.06,5.926-7.725,9.842l-0.009,0.022l0.074,0.357c0.127,0.61,3.136,15.007,5.157,20.291
				c5.414,14.154,16.224,25.609,28.916,30.642l0.724,0.287l0.576-0.522c1.067-0.967,1.99-2.045,2.743-3.204
				c0.645-0.993,1.191-2.097,1.626-3.277l0.44-1.196L-1208.4,333.851z"/>
		</g>
		<g>
			<path fill="#93C43E" d="M-1288.072,243.856c-16.568,0-31.826,7.888-41.374,21.223c2.804,1.591,5.246,3.725,7.192,6.255
				c7.654-11.153,20.507-17.978,34.182-17.978c15.662,0,30.104,9.397,36.902,23.964c1.325-3.605,3.501-6.854,6.344-9.455
				C-1254.057,253.013-1270.466,243.856-1288.072,243.856z"/>
		</g>
	</g>
	<text transform="matrix(1 0 0 1 -1770.5234 630.46)" display="inline" font-family="'Alata-Regular'" font-size="150">adr</text>
	<text transform="matrix(1 0 0 1 -1255.5234 516.46)" display="inline" font-family="'JosefinSans-Thin'" font-size="150">adr</text>
	<g display="inline">
		<text transform="matrix(1 0 0 1 -1644.3799 346.2891)" fill="#363636" font-family="'TypoRoundLightDemo'" font-size="195.5719">adr</text>
	</g>
</g>
<g id="Layer_3">
	<g>
		<g>
			<g>
				<path fill="#363636" d="M44.659,415.421c-0.219,0-0.389-0.066-0.508-0.197c-0.121-0.133-0.181-0.283-0.181-0.461v-21.648
					c0-0.174,0.065-0.326,0.196-0.459c0.133-0.131,0.284-0.197,0.459-0.197h8.66c1.291,0,2.422,0.258,3.396,0.771
					c0.973,0.514,1.732,1.219,2.279,2.115c0.546,0.896,0.819,1.914,0.819,3.051c0,1.006-0.18,1.914-0.54,2.723
					s-0.865,1.482-1.51,2.018s-1.383,0.924-2.214,1.164l-1.509-0.262c0.874,0,1.706,0.225,2.493,0.672
					c0.788,0.449,1.432,1.104,1.936,1.967c0.502,0.865,0.754,1.92,0.754,3.166c0,1.072,0.05,1.887,0.148,2.445
					c0.098,0.557,0.229,0.967,0.393,1.23c0.164,0.262,0.354,0.469,0.574,0.623c0.132,0.086,0.229,0.195,0.296,0.326
					c0.065,0.133,0.076,0.285,0.032,0.459c-0.045,0.133-0.115,0.236-0.214,0.313s-0.201,0.127-0.312,0.146
					c-0.109,0.023-0.229,0-0.361-0.064c-0.306-0.176-0.605-0.436-0.9-0.787c-0.295-0.35-0.541-0.885-0.738-1.607
					c-0.197-0.721-0.297-1.748-0.297-3.084c0-1.027-0.157-1.846-0.475-2.459c-0.318-0.613-0.721-1.082-1.213-1.41
					c-0.493-0.328-1.018-0.547-1.574-0.656c-0.558-0.109-1.067-0.164-1.527-0.164h-7.971l0.297-0.395v10.004
					c0,0.178-0.066,0.328-0.197,0.461C45.021,415.354,44.856,415.421,44.659,415.421z M45.021,403.841h8.43
					c0.874-0.088,1.685-0.35,2.427-0.787c0.744-0.438,1.351-1.051,1.82-1.836c0.471-0.787,0.706-1.717,0.706-2.789
					c0-1.334-0.477-2.443-1.427-3.33c-0.95-0.885-2.237-1.328-3.854-1.328h-7.938l0.164-0.229v10.66L45.021,403.841z"/>
				<path fill="#363636" d="M74.87,415.749c-1.641,0-3.089-0.35-4.347-1.051c-1.257-0.699-2.247-1.689-2.968-2.969
					c-0.723-1.279-1.084-2.783-1.084-4.51c0-1.836,0.355-3.4,1.066-4.689c0.711-1.291,1.63-2.281,2.756-2.969
					c1.125-0.691,2.322-1.035,3.591-1.035c0.919,0,1.815,0.148,2.69,0.443c0.874,0.295,1.656,0.754,2.346,1.377
					c0.688,0.623,1.246,1.4,1.672,2.33c0.427,0.93,0.662,2.039,0.706,3.33c0,0.174-0.065,0.334-0.196,0.475
					c-0.132,0.143-0.285,0.213-0.459,0.213H67.259l-0.196-1.246h13.22l-0.329,0.295v-0.59c-0.109-1.16-0.475-2.133-1.099-2.92
					c-0.623-0.787-1.371-1.383-2.247-1.787c-0.874-0.404-1.782-0.607-2.723-0.607c-0.655,0-1.345,0.148-2.066,0.443
					c-0.721,0.295-1.388,0.742-2.001,1.346c-0.612,0.602-1.109,1.361-1.492,2.279s-0.574,1.99-0.574,3.213
					c0,1.336,0.269,2.559,0.804,3.676c0.536,1.113,1.334,2.01,2.395,2.689c1.062,0.678,2.366,1.016,3.921,1.016
					c0.741,0,1.443-0.125,2.099-0.377c0.655-0.25,1.245-0.584,1.771-1c0.524-0.414,0.95-0.863,1.278-1.346
					c0.177-0.195,0.36-0.295,0.559-0.295c0.152,0,0.284,0.061,0.394,0.182c0.109,0.119,0.164,0.256,0.164,0.408
					c0,0.154-0.044,0.285-0.131,0.395c-0.678,0.875-1.548,1.641-2.608,2.295C77.335,415.421,76.159,415.749,74.87,415.749z"/>
				<path fill="#363636" d="M101.865,399.052c0.198,0,0.355,0.066,0.476,0.197s0.182,0.283,0.182,0.459v15.055
					c0,0.178-0.067,0.328-0.198,0.461c-0.13,0.131-0.284,0.197-0.459,0.197c-0.197,0-0.354-0.066-0.476-0.197
					c-0.119-0.133-0.181-0.283-0.181-0.461v-4.656l0.525-0.428c0,0.701-0.176,1.412-0.525,2.133s-0.831,1.379-1.441,1.969
					c-0.614,0.59-1.335,1.066-2.165,1.426c-0.833,0.361-1.729,0.543-2.691,0.543c-1.465,0-2.771-0.383-3.918-1.148
					c-1.149-0.766-2.051-1.805-2.707-3.117c-0.656-1.311-0.985-2.787-0.985-4.428c0-1.662,0.334-3.133,1.001-4.412
					c0.668-1.279,1.575-2.285,2.723-3.018c1.148-0.732,2.443-1.1,3.887-1.1c0.94,0,1.826,0.17,2.656,0.508
					c0.832,0.34,1.559,0.816,2.183,1.428c0.623,0.613,1.109,1.33,1.459,2.148c0.35,0.82,0.525,1.711,0.525,2.674l-0.525-0.82v-4.756
					c0-0.176,0.062-0.328,0.181-0.459C101.511,399.118,101.668,399.052,101.865,399.052z M94.978,414.501
					c1.224,0,2.318-0.322,3.28-0.967s1.716-1.531,2.263-2.658c0.547-1.125,0.82-2.398,0.82-3.82c0-1.355-0.273-2.586-0.82-3.691
					c-0.547-1.104-1.301-1.977-2.263-2.623c-0.962-0.645-2.057-0.969-3.28-0.969c-1.203,0-2.285,0.313-3.248,0.936
					c-0.962,0.625-1.722,1.482-2.279,2.576c-0.559,1.092-0.836,2.35-0.836,3.771s0.272,2.695,0.819,3.82
					c0.546,1.127,1.3,2.014,2.264,2.658C92.659,414.179,93.753,414.501,94.978,414.501z"/>
				<path fill="#363636" d="M111.902,414.763c0,0.178-0.065,0.328-0.196,0.461c-0.132,0.131-0.284,0.197-0.46,0.197
					c-0.195,0-0.355-0.066-0.476-0.197c-0.12-0.133-0.18-0.283-0.18-0.461v-22.961c0-0.174,0.064-0.326,0.195-0.459
					c0.133-0.131,0.286-0.195,0.46-0.195c0.197,0,0.356,0.064,0.476,0.195c0.121,0.133,0.181,0.285,0.181,0.459V414.763z"/>
				<path fill="#363636" d="M118.365,398.921h7.61c0.174,0,0.322,0.064,0.441,0.197c0.121,0.131,0.181,0.273,0.181,0.426
					c0,0.176-0.06,0.322-0.181,0.443c-0.119,0.119-0.268,0.18-0.441,0.18h-7.61c-0.153,0-0.296-0.066-0.427-0.195
					c-0.131-0.133-0.197-0.275-0.197-0.428c0-0.176,0.066-0.322,0.197-0.443C118.069,398.981,118.212,398.921,118.365,398.921z
					 M121.71,394.099c0.197,0,0.355,0.066,0.477,0.197c0.12,0.131,0.18,0.283,0.18,0.459v17.09c0,0.721,0.094,1.252,0.279,1.59
					c0.186,0.34,0.42,0.559,0.706,0.658c0.283,0.096,0.557,0.146,0.819,0.146c0.152,0,0.283-0.021,0.393-0.066
					c0.109-0.043,0.242-0.064,0.395-0.064s0.283,0.061,0.393,0.18c0.109,0.121,0.166,0.258,0.166,0.41
					c0,0.197-0.127,0.367-0.378,0.508c-0.252,0.143-0.564,0.215-0.936,0.215c-0.131,0-0.366-0.006-0.705-0.018
					c-0.339-0.01-0.699-0.109-1.082-0.295s-0.706-0.525-0.968-1.016c-0.262-0.494-0.394-1.219-0.394-2.184v-17.154
					c0-0.176,0.065-0.328,0.196-0.459C121.383,394.165,121.535,394.099,121.71,394.099z"/>
				<path fill="#363636" d="M133.355,396.296c-0.352,0-0.629-0.098-0.837-0.295c-0.209-0.195-0.313-0.447-0.313-0.754v-0.264
					c0-0.305,0.109-0.557,0.328-0.754s0.504-0.295,0.854-0.295c0.304,0,0.562,0.098,0.771,0.295
					c0.207,0.197,0.311,0.449,0.311,0.754v0.264c0,0.307-0.104,0.559-0.311,0.754C133.95,396.198,133.683,396.296,133.355,396.296z
					 M134.011,414.763c0,0.178-0.065,0.328-0.196,0.461c-0.132,0.131-0.284,0.197-0.459,0.197c-0.196,0-0.356-0.066-0.477-0.197
					c-0.12-0.133-0.179-0.283-0.179-0.461v-15.58c0-0.174,0.063-0.328,0.195-0.459c0.131-0.131,0.285-0.197,0.46-0.197
					c0.196,0,0.354,0.066,0.475,0.197s0.181,0.285,0.181,0.459V414.763z"/>
				<path fill="#363636" d="M148.903,398.854c1.224,0,2.344,0.334,3.361,1.002c1.017,0.666,1.711,1.711,2.083,3.133l-0.426,0.295
					l0.163-0.623c0.284-0.723,0.781-1.367,1.492-1.936c0.711-0.57,1.51-1.023,2.396-1.361c0.885-0.34,1.743-0.51,2.575-0.51
					c1.312,0,2.395,0.285,3.247,0.854s1.481,1.328,1.886,2.279s0.607,2.029,0.607,3.232v9.543c0,0.178-0.061,0.328-0.181,0.461
					c-0.12,0.131-0.28,0.197-0.475,0.197c-0.198,0-0.356-0.066-0.477-0.197c-0.122-0.133-0.181-0.283-0.181-0.461v-9.414
					c0-0.961-0.16-1.842-0.475-2.639c-0.318-0.799-0.811-1.432-1.477-1.904c-0.667-0.469-1.537-0.705-2.607-0.705
					c-0.941,0-1.859,0.236-2.756,0.705c-0.896,0.473-1.636,1.105-2.215,1.904c-0.58,0.797-0.869,1.678-0.869,2.639v9.414
					c0,0.178-0.061,0.328-0.18,0.461c-0.121,0.131-0.279,0.197-0.476,0.197c-0.197,0-0.356-0.066-0.476-0.197
					c-0.121-0.133-0.182-0.283-0.182-0.461v-9.578c0-0.939-0.146-1.791-0.442-2.559c-0.295-0.764-0.76-1.377-1.394-1.836
					c-0.636-0.459-1.477-0.689-2.525-0.689c-0.918,0-1.81,0.23-2.675,0.689c-0.863,0.459-1.58,1.072-2.147,1.836
					c-0.57,0.768-0.854,1.619-0.854,2.559v9.578c0,0.178-0.066,0.328-0.197,0.461c-0.131,0.131-0.283,0.197-0.459,0.197
					c-0.196,0-0.355-0.066-0.475-0.197c-0.121-0.133-0.181-0.283-0.181-0.461v-15.055c0-0.176,0.065-0.328,0.196-0.459
					s0.284-0.197,0.459-0.197c0.197,0,0.355,0.066,0.476,0.197s0.181,0.283,0.181,0.459v3.576l-0.984,1.672
					c0-0.766,0.187-1.508,0.558-2.23c0.372-0.723,0.87-1.373,1.492-1.951c0.625-0.58,1.335-1.045,2.133-1.395
					S148.049,398.854,148.903,398.854z"/>
				<path fill="#363636" d="M181.574,415.749c-1.642,0-3.09-0.35-4.347-1.051c-1.258-0.699-2.246-1.689-2.969-2.969
					s-1.082-2.783-1.082-4.51c0-1.836,0.354-3.4,1.064-4.689c0.712-1.291,1.63-2.281,2.756-2.969
					c1.126-0.691,2.324-1.035,3.592-1.035c0.919,0,1.815,0.148,2.691,0.443c0.873,0.295,1.654,0.754,2.344,1.377
					c0.688,0.623,1.246,1.4,1.674,2.33c0.427,0.93,0.662,2.039,0.704,3.33c0,0.174-0.065,0.334-0.196,0.475
					c-0.132,0.143-0.284,0.213-0.459,0.213h-13.383l-0.197-1.246h13.219l-0.328,0.295v-0.59c-0.109-1.16-0.476-2.133-1.098-2.92
					c-0.625-0.787-1.373-1.383-2.248-1.787s-1.782-0.607-2.723-0.607c-0.656,0-1.345,0.148-2.065,0.443
					c-0.723,0.295-1.39,0.742-2.002,1.346c-0.611,0.602-1.109,1.361-1.493,2.279c-0.381,0.918-0.573,1.99-0.573,3.213
					c0,1.336,0.269,2.559,0.804,3.676c0.536,1.113,1.334,2.01,2.395,2.689c1.061,0.678,2.367,1.016,3.921,1.016
					c0.742,0,1.442-0.125,2.099-0.377c0.656-0.25,1.246-0.584,1.772-1c0.522-0.414,0.95-0.863,1.278-1.346
					c0.175-0.195,0.36-0.295,0.558-0.295c0.152,0,0.283,0.061,0.393,0.182c0.109,0.119,0.165,0.256,0.165,0.408
					c0,0.154-0.045,0.285-0.132,0.395c-0.678,0.875-1.547,1.641-2.606,2.295C184.038,415.421,182.864,415.749,181.574,415.749z"/>
				<path fill="#363636" d="M213.589,415.749c-1.642,0-3.09-0.35-4.348-1.051c-1.257-0.699-2.246-1.689-2.968-2.969
					c-0.723-1.279-1.083-2.783-1.083-4.51c0-1.836,0.355-3.4,1.065-4.689c0.712-1.291,1.63-2.281,2.756-2.969
					c1.126-0.691,2.324-1.035,3.592-1.035c0.919,0,1.815,0.148,2.69,0.443c0.873,0.295,1.655,0.754,2.344,1.377
					c0.689,0.623,1.247,1.4,1.674,2.33c0.428,0.93,0.662,2.039,0.705,3.33c0,0.174-0.065,0.334-0.196,0.475
					c-0.132,0.143-0.284,0.213-0.459,0.213h-13.383l-0.198-1.246h13.219l-0.328,0.295v-0.59c-0.109-1.16-0.475-2.133-1.097-2.92
					c-0.625-0.787-1.374-1.383-2.248-1.787c-0.875-0.404-1.783-0.607-2.723-0.607c-0.656,0-1.345,0.148-2.065,0.443
					c-0.723,0.295-1.39,0.742-2.003,1.346c-0.61,0.602-1.108,1.361-1.492,2.279c-0.382,0.918-0.573,1.99-0.573,3.213
					c0,1.336,0.268,2.559,0.803,3.676c0.537,1.113,1.335,2.01,2.395,2.689c1.062,0.678,2.368,1.016,3.922,1.016
					c0.742,0,1.442-0.125,2.098-0.377c0.657-0.25,1.247-0.584,1.773-1c0.522-0.414,0.949-0.863,1.278-1.346
					c0.175-0.195,0.36-0.295,0.558-0.295c0.152,0,0.283,0.061,0.393,0.182c0.109,0.119,0.165,0.256,0.165,0.408
					c0,0.154-0.045,0.285-0.132,0.395c-0.678,0.875-1.547,1.641-2.606,2.295C216.053,415.421,214.878,415.749,213.589,415.749z"/>
				<path fill="#363636" d="M234.352,398.526c1.378,0,2.497,0.273,3.36,0.82c0.865,0.547,1.498,1.291,1.903,2.23
					c0.405,0.941,0.606,1.99,0.606,3.148v10.037c0,0.178-0.064,0.328-0.196,0.461c-0.131,0.131-0.284,0.197-0.459,0.197
					c-0.196,0-0.356-0.066-0.476-0.197c-0.121-0.133-0.18-0.283-0.18-0.461v-9.904c0-0.941-0.16-1.793-0.476-2.559
					c-0.317-0.766-0.821-1.379-1.51-1.838c-0.689-0.459-1.591-0.689-2.705-0.689c-0.964,0-1.903,0.23-2.821,0.689
					c-0.919,0.459-1.68,1.072-2.28,1.838c-0.602,0.766-0.902,1.617-0.902,2.559v9.904c0,0.178-0.066,0.328-0.197,0.461
					c-0.131,0.131-0.283,0.197-0.459,0.197c-0.196,0-0.355-0.066-0.476-0.197c-0.12-0.133-0.18-0.283-0.18-0.461v-15.055
					c0-0.176,0.065-0.328,0.196-0.459s0.284-0.197,0.459-0.197c0.197,0,0.354,0.066,0.476,0.197
					c0.119,0.131,0.181,0.283,0.181,0.459v3.215l-0.819,1.574c0-0.787,0.207-1.541,0.622-2.264c0.417-0.721,0.962-1.361,1.641-1.918
					c0.678-0.559,1.427-0.996,2.246-1.313C232.728,398.685,233.541,398.526,234.352,398.526z"/>
				<path fill="#363636" d="M247.177,398.462c0.109,0,0.225,0.037,0.344,0.113c0.121,0.078,0.202,0.182,0.248,0.313l6.067,14.531
					l-0.329,0.23l6.167-14.762c0.109-0.283,0.339-0.426,0.688-0.426c0.109,0,0.24,0.043,0.395,0.131
					c0.152,0.088,0.23,0.219,0.23,0.393c0,0.111-0.013,0.193-0.033,0.248c-0.023,0.055-0.045,0.104-0.066,0.146l-6.527,15.615
					c-0.109,0.283-0.316,0.426-0.623,0.426c-0.131,0-0.257-0.039-0.377-0.115s-0.203-0.18-0.247-0.311l-6.56-15.582
					c-0.021-0.045-0.039-0.094-0.05-0.148c-0.012-0.053-0.016-0.104-0.016-0.146c0-0.176,0.055-0.328,0.164-0.459
					C246.762,398.526,246.935,398.462,247.177,398.462z"/>
				<path fill="#363636" d="M268.071,396.296c-0.35,0-0.63-0.098-0.836-0.295c-0.209-0.195-0.312-0.447-0.312-0.754v-0.264
					c0-0.305,0.109-0.557,0.328-0.754c0.218-0.197,0.502-0.295,0.852-0.295c0.308,0,0.563,0.098,0.771,0.295
					s0.313,0.449,0.313,0.754v0.264c0,0.307-0.104,0.559-0.313,0.754C268.667,396.198,268.399,396.296,268.071,396.296z
					 M268.729,414.763c0,0.178-0.067,0.328-0.198,0.461c-0.131,0.131-0.284,0.197-0.459,0.197c-0.197,0-0.354-0.066-0.475-0.197
					c-0.121-0.133-0.182-0.283-0.182-0.461v-15.58c0-0.174,0.066-0.328,0.197-0.459s0.283-0.197,0.459-0.197
					c0.197,0,0.355,0.066,0.476,0.197s0.182,0.285,0.182,0.459V414.763z"/>
				<path fill="#363636" d="M277.289,415.421c-0.197,0-0.356-0.066-0.477-0.197c-0.121-0.133-0.18-0.283-0.18-0.461v-15.055
					c0-0.176,0.065-0.328,0.197-0.459c0.131-0.131,0.283-0.197,0.459-0.197c0.196,0,0.354,0.066,0.476,0.197
					c0.12,0.131,0.18,0.283,0.18,0.459v5.543l-0.558,0.854c0-0.854,0.147-1.717,0.442-2.592c0.296-0.873,0.729-1.689,1.297-2.443
					s1.263-1.367,2.082-1.836c0.819-0.471,1.766-0.707,2.838-0.707c0.305,0,0.634,0.045,0.984,0.133
					c0.349,0.086,0.523,0.295,0.523,0.623c0,0.195-0.054,0.359-0.163,0.49c-0.109,0.133-0.252,0.199-0.427,0.199
					c-0.131,0-0.29-0.051-0.476-0.148c-0.187-0.1-0.454-0.148-0.804-0.148c-0.7,0-1.389,0.207-2.065,0.623
					c-0.679,0.416-1.298,0.967-1.854,1.658c-0.558,0.688-1.001,1.438-1.328,2.246c-0.328,0.809-0.492,1.596-0.492,2.361v8.199
					c0,0.178-0.065,0.328-0.196,0.461C277.616,415.354,277.463,415.421,277.289,415.421z"/>
				<path fill="#363636" d="M305.597,407.153c0,1.619-0.351,3.078-1.05,4.381c-0.7,1.301-1.655,2.328-2.87,3.082
					c-1.213,0.754-2.598,1.133-4.149,1.133c-1.531,0-2.908-0.379-4.134-1.133c-1.224-0.754-2.191-1.781-2.901-3.082
					c-0.712-1.303-1.066-2.762-1.066-4.381c0-1.639,0.354-3.111,1.066-4.412c0.71-1.299,1.678-2.328,2.901-3.082
					c1.226-0.756,2.603-1.133,4.134-1.133c1.552,0,2.937,0.377,4.149,1.133c1.215,0.754,2.17,1.783,2.87,3.082
					C305.246,404.042,305.597,405.515,305.597,407.153z M304.285,407.153c0-1.42-0.291-2.684-0.87-3.789
					c-0.58-1.104-1.378-1.977-2.395-2.623c-1.018-0.645-2.182-0.969-3.493-0.969c-1.291,0-2.449,0.324-3.477,0.969
					c-1.028,0.646-1.837,1.52-2.427,2.623c-0.592,1.105-0.887,2.369-0.887,3.789c0,1.4,0.295,2.652,0.887,3.756
					c0.59,1.105,1.398,1.98,2.427,2.625c1.027,0.645,2.186,0.967,3.477,0.967c1.312,0,2.476-0.322,3.493-0.967
					c1.017-0.645,1.814-1.52,2.395-2.625C303.994,409.806,304.285,408.554,304.285,407.153z"/>
				<path fill="#363636" d="M319.931,398.526c1.377,0,2.498,0.273,3.362,0.82c0.863,0.547,1.497,1.291,1.901,2.23
					c0.406,0.941,0.607,1.99,0.607,3.148v10.037c0,0.178-0.065,0.328-0.196,0.461c-0.131,0.131-0.285,0.197-0.459,0.197
					c-0.197,0-0.356-0.066-0.476-0.197c-0.121-0.133-0.182-0.283-0.182-0.461v-9.904c0-0.941-0.158-1.793-0.475-2.559
					c-0.317-0.766-0.819-1.379-1.508-1.838c-0.69-0.459-1.592-0.689-2.707-0.689c-0.964,0-1.903,0.23-2.822,0.689
					c-0.918,0.459-1.679,1.072-2.279,1.838s-0.902,1.617-0.902,2.559v9.904c0,0.178-0.065,0.328-0.196,0.461
					c-0.132,0.131-0.284,0.197-0.459,0.197c-0.196,0-0.356-0.066-0.477-0.197c-0.12-0.133-0.179-0.283-0.179-0.461v-15.055
					c0-0.176,0.064-0.328,0.196-0.459c0.131-0.131,0.284-0.197,0.459-0.197c0.196,0,0.355,0.066,0.476,0.197s0.18,0.283,0.18,0.459
					v3.215l-0.819,1.574c0-0.787,0.208-1.541,0.623-2.264c0.415-0.721,0.963-1.361,1.641-1.918c0.678-0.559,1.426-0.996,2.246-1.313
					C318.308,398.685,319.122,398.526,319.931,398.526z"/>
				<path fill="#363636" d="M340.693,398.854c1.226,0,2.347,0.334,3.363,1.002c1.017,0.666,1.711,1.711,2.082,3.133l-0.427,0.295
					l0.165-0.623c0.283-0.723,0.781-1.367,1.492-1.936c0.71-0.57,1.509-1.023,2.395-1.361c0.887-0.34,1.743-0.51,2.575-0.51
					c1.312,0,2.395,0.285,3.247,0.854s1.481,1.328,1.886,2.279s0.607,2.029,0.607,3.232v9.543c0,0.178-0.062,0.328-0.182,0.461
					c-0.12,0.131-0.277,0.197-0.475,0.197c-0.196,0-0.355-0.066-0.476-0.197c-0.12-0.133-0.182-0.283-0.182-0.461v-9.414
					c0-0.961-0.157-1.842-0.475-2.639c-0.318-0.799-0.81-1.432-1.477-1.904c-0.667-0.469-1.536-0.705-2.608-0.705
					c-0.939,0-1.857,0.236-2.754,0.705c-0.897,0.473-1.635,1.105-2.213,1.904c-0.581,0.797-0.871,1.678-0.871,2.639v9.414
					c0,0.178-0.06,0.328-0.18,0.461c-0.121,0.131-0.279,0.197-0.477,0.197c-0.196,0-0.355-0.066-0.476-0.197
					c-0.12-0.133-0.18-0.283-0.18-0.461v-9.578c0-0.939-0.148-1.791-0.442-2.559c-0.296-0.764-0.761-1.377-1.395-1.836
					s-1.477-0.689-2.526-0.689c-0.919,0-1.81,0.23-2.672,0.689c-0.865,0.459-1.581,1.072-2.149,1.836
					c-0.568,0.768-0.853,1.619-0.853,2.559v9.578c0,0.178-0.065,0.328-0.196,0.461c-0.133,0.131-0.285,0.197-0.459,0.197
					c-0.197,0-0.356-0.066-0.477-0.197c-0.121-0.133-0.181-0.283-0.181-0.461v-15.055c0-0.176,0.065-0.328,0.198-0.459
					c0.131-0.131,0.282-0.197,0.459-0.197c0.196,0,0.354,0.066,0.475,0.197s0.181,0.283,0.181,0.459v3.576l-0.983,1.672
					c0-0.766,0.184-1.508,0.558-2.23c0.371-0.723,0.867-1.373,1.492-1.951c0.622-0.58,1.332-1.045,2.132-1.395
					C339.016,399.03,339.842,398.854,340.693,398.854z"/>
				<path fill="#363636" d="M373.364,415.749c-1.641,0-3.088-0.35-4.346-1.051c-1.258-0.699-2.248-1.689-2.969-2.969
					c-0.722-1.279-1.084-2.783-1.084-4.51c0-1.836,0.355-3.4,1.066-4.689c0.712-1.291,1.63-2.281,2.757-2.969
					c1.125-0.691,2.322-1.035,3.59-1.035c0.92,0,1.815,0.148,2.691,0.443c0.874,0.295,1.656,0.754,2.345,1.377s1.247,1.4,1.672,2.33
					c0.428,0.93,0.662,2.039,0.707,3.33c0,0.174-0.065,0.334-0.196,0.475c-0.132,0.143-0.286,0.213-0.46,0.213h-13.384l-0.196-1.246
					h13.219l-0.328,0.295v-0.59c-0.109-1.16-0.475-2.133-1.099-2.92c-0.623-0.787-1.372-1.383-2.247-1.787s-1.782-0.607-2.724-0.607
					c-0.655,0-1.344,0.148-2.065,0.443c-0.721,0.295-1.389,0.742-2.001,1.346c-0.612,0.602-1.109,1.361-1.492,2.279
					c-0.384,0.918-0.574,1.99-0.574,3.213c0,1.336,0.269,2.559,0.804,3.676c0.535,1.113,1.333,2.01,2.395,2.689
					c1.061,0.678,2.366,1.016,3.92,1.016c0.742,0,1.444-0.125,2.1-0.377c0.655-0.25,1.245-0.584,1.771-1
					c0.524-0.414,0.95-0.863,1.278-1.346c0.176-0.195,0.36-0.295,0.558-0.295c0.152,0,0.284,0.061,0.395,0.182
					c0.109,0.119,0.164,0.256,0.164,0.408c0,0.154-0.045,0.285-0.131,0.395c-0.679,0.875-1.549,1.641-2.608,2.295
					C375.829,415.421,374.653,415.749,373.364,415.749z"/>
				<path fill="#363636" d="M394.127,398.526c1.379,0,2.499,0.273,3.363,0.82c0.862,0.547,1.498,1.291,1.902,2.23
					c0.404,0.941,0.607,1.99,0.607,3.148v10.037c0,0.178-0.067,0.328-0.198,0.461c-0.131,0.131-0.284,0.197-0.459,0.197
					c-0.197,0-0.354-0.066-0.475-0.197c-0.12-0.133-0.182-0.283-0.182-0.461v-9.904c0-0.941-0.158-1.793-0.476-2.559
					s-0.819-1.379-1.508-1.838s-1.591-0.689-2.707-0.689c-0.962,0-1.901,0.23-2.821,0.689c-0.918,0.459-1.678,1.072-2.279,1.838
					s-0.901,1.617-0.901,2.559v9.904c0,0.178-0.065,0.328-0.196,0.461c-0.132,0.131-0.285,0.197-0.459,0.197
					c-0.197,0-0.356-0.066-0.477-0.197c-0.121-0.133-0.18-0.283-0.18-0.461v-15.055c0-0.176,0.064-0.328,0.197-0.459
					c0.131-0.131,0.283-0.197,0.459-0.197c0.196,0,0.355,0.066,0.475,0.197c0.121,0.131,0.181,0.283,0.181,0.459v3.215l-0.821,1.574
					c0-0.787,0.209-1.541,0.625-2.264c0.414-0.721,0.961-1.361,1.639-1.918c0.679-0.559,1.428-0.996,2.248-1.313
					C392.504,398.685,393.318,398.526,394.127,398.526z"/>
				<path fill="#363636" d="M406.396,398.921h7.611c0.173,0,0.321,0.064,0.441,0.197c0.12,0.131,0.18,0.273,0.18,0.426
					c0,0.176-0.06,0.322-0.18,0.443c-0.12,0.119-0.269,0.18-0.441,0.18h-7.611c-0.153,0-0.296-0.066-0.427-0.195
					c-0.131-0.133-0.196-0.275-0.196-0.428c0-0.176,0.065-0.322,0.196-0.443C406.1,398.981,406.242,398.921,406.396,398.921z
					 M409.74,394.099c0.198,0,0.355,0.066,0.477,0.197c0.12,0.131,0.181,0.283,0.181,0.459v17.09c0,0.721,0.093,1.252,0.278,1.59
					c0.186,0.34,0.421,0.559,0.706,0.658c0.283,0.096,0.557,0.146,0.82,0.146c0.151,0,0.282-0.021,0.392-0.066
					c0.11-0.043,0.242-0.064,0.396-0.064c0.152,0,0.283,0.061,0.393,0.18c0.109,0.121,0.165,0.258,0.165,0.41
					c0,0.197-0.126,0.367-0.378,0.508c-0.252,0.143-0.564,0.215-0.936,0.215c-0.131,0-0.365-0.006-0.704-0.018
					c-0.339-0.01-0.7-0.109-1.083-0.295s-0.706-0.525-0.967-1.016c-0.262-0.494-0.395-1.219-0.395-2.184v-17.154
					c0-0.176,0.065-0.328,0.196-0.459C409.413,394.165,409.565,394.099,409.74,394.099z"/>
				<path fill="#363636" d="M438.672,399.249c0.175,0,0.323,0.061,0.442,0.18c0.121,0.121,0.181,0.268,0.181,0.443
					c0,0.174-0.06,0.322-0.181,0.443c-0.119,0.119-0.268,0.18-0.442,0.18h-7.807c-0.153,0-0.295-0.064-0.426-0.197
					c-0.131-0.131-0.198-0.271-0.198-0.426c0-0.197,0.067-0.35,0.198-0.459s0.272-0.164,0.426-0.164H438.672z M437.163,391.312
					c0.262,0,0.574,0.021,0.935,0.064c0.36,0.045,0.679,0.131,0.952,0.262c0.273,0.133,0.409,0.328,0.409,0.592
					c0,0.154-0.062,0.301-0.18,0.443c-0.122,0.141-0.269,0.211-0.443,0.211c-0.219,0-0.481-0.064-0.788-0.195
					c-0.305-0.131-0.645-0.197-1.016-0.197c-0.438,0-0.827,0.098-1.165,0.297c-0.34,0.195-0.602,0.496-0.787,0.9
					c-0.186,0.406-0.279,0.924-0.279,1.559v19.516c0,0.178-0.065,0.328-0.197,0.461c-0.131,0.131-0.283,0.197-0.459,0.197
					c-0.196,0-0.355-0.066-0.476-0.197c-0.12-0.133-0.18-0.283-0.18-0.461v-19.516c0-1.355,0.361-2.35,1.082-2.986
					C435.294,391.628,436.157,391.312,437.163,391.312z"/>
				<path fill="#363636" d="M459.305,407.153c0,1.619-0.351,3.078-1.05,4.381c-0.699,1.301-1.655,2.328-2.87,3.082
					c-1.213,0.754-2.597,1.133-4.149,1.133c-1.531,0-2.908-0.379-4.134-1.133c-1.224-0.754-2.191-1.781-2.901-3.082
					c-0.711-1.303-1.066-2.762-1.066-4.381c0-1.639,0.355-3.111,1.066-4.412c0.71-1.299,1.678-2.328,2.901-3.082
					c1.226-0.756,2.603-1.133,4.134-1.133c1.553,0,2.937,0.377,4.149,1.133c1.215,0.754,2.171,1.783,2.87,3.082
					C458.954,404.042,459.305,405.515,459.305,407.153z M457.993,407.153c0-1.42-0.291-2.684-0.87-3.789
					c-0.579-1.104-1.378-1.977-2.395-2.623c-1.018-0.645-2.181-0.969-3.493-0.969c-1.291,0-2.449,0.324-3.477,0.969
					c-1.028,0.646-1.837,1.52-2.427,2.623c-0.591,1.105-0.887,2.369-0.887,3.789c0,1.4,0.296,2.652,0.887,3.756
					c0.59,1.105,1.398,1.98,2.427,2.625c1.027,0.645,2.186,0.967,3.477,0.967c1.313,0,2.476-0.322,3.493-0.967
					c1.017-0.645,1.815-1.52,2.395-2.625C457.702,409.806,457.993,408.554,457.993,407.153z"/>
				<path fill="#363636" d="M466.849,415.421c-0.196,0-0.356-0.066-0.477-0.197c-0.12-0.133-0.179-0.283-0.179-0.461v-15.055
					c0-0.176,0.064-0.328,0.196-0.459c0.131-0.131,0.284-0.197,0.459-0.197c0.196,0,0.355,0.066,0.476,0.197s0.18,0.283,0.18,0.459
					v5.543l-0.558,0.854c0-0.854,0.148-1.717,0.443-2.592c0.296-0.873,0.727-1.689,1.296-2.443c0.568-0.754,1.264-1.367,2.083-1.836
					c0.82-0.471,1.765-0.707,2.838-0.707c0.305,0,0.633,0.045,0.983,0.133c0.349,0.086,0.524,0.295,0.524,0.623
					c0,0.195-0.055,0.359-0.164,0.49c-0.109,0.133-0.252,0.199-0.426,0.199c-0.131,0-0.291-0.051-0.475-0.148
					c-0.188-0.1-0.455-0.148-0.805-0.148c-0.701,0-1.39,0.207-2.066,0.623c-0.678,0.416-1.296,0.967-1.854,1.658
					c-0.559,0.688-1.002,1.438-1.328,2.246c-0.329,0.809-0.493,1.596-0.493,2.361v8.199c0,0.178-0.065,0.328-0.196,0.461
					C467.176,415.354,467.023,415.421,466.849,415.421z"/>
				<path fill="#363636" d="M505.586,391.147c0.198,0,0.356,0.064,0.477,0.195c0.12,0.133,0.181,0.285,0.181,0.459v22.961
					c0,0.178-0.066,0.328-0.196,0.461c-0.133,0.131-0.284,0.197-0.461,0.197c-0.196,0-0.354-0.066-0.476-0.197
					c-0.119-0.133-0.18-0.283-0.18-0.461v-4.656l0.524-0.723c0,0.744-0.168,1.492-0.507,2.246c-0.339,0.756-0.821,1.445-1.444,2.068
					s-1.351,1.121-2.181,1.492c-0.832,0.371-1.728,0.559-2.691,0.559c-1.442,0-2.738-0.379-3.887-1.133
					c-1.147-0.754-2.055-1.781-2.723-3.082c-0.667-1.303-1-2.773-1-4.414s0.333-3.109,1-4.41c0.668-1.303,1.575-2.324,2.723-3.068
					c1.148-0.742,2.444-1.115,3.887-1.115c0.897,0,1.757,0.17,2.576,0.508c0.82,0.34,1.546,0.816,2.182,1.428
					c0.634,0.613,1.137,1.33,1.508,2.148c0.372,0.82,0.558,1.711,0.558,2.674l-0.524-0.82v-12.662c0-0.174,0.061-0.326,0.18-0.459
					C505.231,391.212,505.39,391.147,505.586,391.147z M498.699,414.501c1.246,0,2.345-0.316,3.296-0.951
					c0.951-0.633,1.701-1.508,2.247-2.623s0.821-2.385,0.821-3.807c0-1.42-0.275-2.684-0.821-3.787s-1.302-1.975-2.263-2.607
					c-0.963-0.635-2.057-0.953-3.28-0.953c-1.204,0-2.285,0.318-3.249,0.953c-0.961,0.633-1.722,1.504-2.279,2.607
					c-0.557,1.104-0.836,2.367-0.836,3.787c0,1.4,0.279,2.658,0.836,3.773c0.558,1.115,1.318,1.996,2.279,2.641
					C496.414,414.179,497.495,414.501,498.699,414.501z"/>
				<path fill="#363636" d="M514.804,396.296c-0.35,0-0.629-0.098-0.836-0.295c-0.208-0.195-0.313-0.447-0.313-0.754v-0.264
					c0-0.305,0.109-0.557,0.329-0.754c0.219-0.197,0.501-0.295,0.853-0.295c0.306,0,0.563,0.098,0.771,0.295
					s0.312,0.449,0.312,0.754v0.264c0,0.307-0.104,0.559-0.312,0.754C515.399,396.198,515.132,396.296,514.804,396.296z
					 M515.46,414.763c0,0.178-0.066,0.328-0.197,0.461c-0.131,0.131-0.283,0.197-0.459,0.197c-0.196,0-0.355-0.066-0.476-0.197
					c-0.12-0.133-0.18-0.283-0.18-0.461v-15.58c0-0.174,0.065-0.328,0.196-0.459s0.284-0.197,0.459-0.197
					c0.197,0,0.355,0.066,0.475,0.197c0.121,0.131,0.182,0.285,0.182,0.459V414.763z"/>
				<path fill="#363636" d="M522.446,412.796c-0.152-0.264-0.225-0.475-0.213-0.639s0.093-0.301,0.248-0.412
					c0.107-0.107,0.256-0.156,0.441-0.146c0.186,0.012,0.344,0.094,0.477,0.246c0.566,0.811,1.295,1.465,2.181,1.969
					c0.885,0.502,1.93,0.754,3.131,0.754c0.724,0,1.418-0.121,2.085-0.361c0.666-0.24,1.212-0.602,1.639-1.082
					c0.428-0.482,0.641-1.072,0.641-1.771c0-0.742-0.207-1.34-0.624-1.787c-0.415-0.447-0.95-0.805-1.606-1.066
					c-0.657-0.262-1.346-0.48-2.066-0.656c-0.767-0.197-1.492-0.42-2.182-0.672c-0.688-0.252-1.296-0.57-1.82-0.953
					c-0.525-0.381-0.94-0.834-1.246-1.359c-0.308-0.525-0.459-1.148-0.459-1.869c0-0.854,0.229-1.619,0.688-2.297
					c0.459-0.678,1.104-1.209,1.935-1.592c0.83-0.381,1.793-0.574,2.887-0.574c0.525,0,1.083,0.066,1.673,0.197
					c0.591,0.131,1.181,0.355,1.771,0.674c0.59,0.316,1.136,0.758,1.641,1.328c0.173,0.131,0.256,0.289,0.245,0.475
					c-0.011,0.188-0.094,0.355-0.245,0.508c-0.131,0.088-0.275,0.133-0.428,0.133c-0.151,0-0.284-0.066-0.392-0.197
					c-0.57-0.635-1.23-1.104-1.986-1.412c-0.754-0.305-1.558-0.459-2.41-0.459c-0.721,0-1.395,0.121-2.019,0.363
					c-0.622,0.24-1.131,0.594-1.524,1.064s-0.59,1.066-0.59,1.789c0.043,0.678,0.277,1.234,0.705,1.672
					c0.427,0.438,0.994,0.799,1.705,1.082c0.711,0.285,1.514,0.547,2.411,0.787c0.722,0.176,1.394,0.379,2.018,0.607
					c0.622,0.23,1.169,0.52,1.64,0.869c0.47,0.35,0.842,0.787,1.115,1.313c0.272,0.523,0.41,1.182,0.41,1.967
					c0,0.92-0.246,1.713-0.738,2.379c-0.491,0.668-1.169,1.182-2.034,1.541c-0.863,0.361-1.853,0.543-2.968,0.543
					c-1.138,0-2.23-0.23-3.28-0.689S523.3,413.845,522.446,412.796z"/>
				<path fill="#363636" d="M548.688,398.854c1.465,0,2.767,0.361,3.903,1.082c1.138,0.723,2.04,1.713,2.707,2.969
					c0.666,1.26,0.999,2.697,0.999,4.314c0,1.596-0.333,3.027-0.999,4.297c-0.667,1.27-1.575,2.268-2.723,3.002
					c-1.148,0.732-2.444,1.098-3.888,1.098c-0.722,0-1.417-0.104-2.083-0.311c-0.667-0.209-1.285-0.504-1.854-0.887
					c-0.568-0.381-1.088-0.857-1.558-1.428c-0.47-0.566-0.881-1.213-1.229-1.934l0.426-0.459v10.727c0,0.174-0.06,0.326-0.181,0.459
					c-0.119,0.131-0.278,0.195-0.475,0.195c-0.176,0-0.328-0.064-0.459-0.195c-0.133-0.133-0.197-0.285-0.197-0.459v-21.814
					c0-0.174,0.059-0.328,0.18-0.459c0.12-0.131,0.279-0.197,0.477-0.197c0.196,0,0.355,0.066,0.475,0.197
					c0.121,0.131,0.181,0.285,0.181,0.459v4.199l-0.426-0.23c0.305-0.809,0.688-1.508,1.146-2.1c0.459-0.59,0.985-1.07,1.575-1.443
					c0.592-0.371,1.225-0.645,1.903-0.818C547.267,398.942,547.967,398.854,548.688,398.854z M548.622,400.101
					c-1.246,0-2.345,0.309-3.297,0.92c-0.949,0.611-1.698,1.449-2.246,2.508c-0.547,1.063-0.82,2.293-0.82,3.691
					c0,1.377,0.273,2.607,0.82,3.689c0.548,1.084,1.297,1.932,2.246,2.543c0.952,0.611,2.051,0.918,3.297,0.918
					c1.226,0,2.313-0.307,3.266-0.918c0.949-0.611,1.705-1.459,2.262-2.543c0.559-1.082,0.837-2.313,0.837-3.689
					s-0.278-2.604-0.837-3.674c-0.557-1.07-1.313-1.914-2.262-2.525C550.936,400.409,549.848,400.101,548.622,400.101z"/>
				<path fill="#363636" d="M575.553,399.052c0.196,0,0.355,0.066,0.476,0.197s0.18,0.283,0.18,0.459v9.545
					c0,2.121-0.595,3.713-1.787,4.773c-1.191,1.061-2.771,1.59-4.739,1.59c-1.947,0-3.516-0.529-4.708-1.59
					c-1.191-1.061-1.787-2.652-1.787-4.773v-9.545c0-0.176,0.065-0.328,0.196-0.459c0.132-0.131,0.284-0.197,0.46-0.197
					c0.197,0,0.354,0.066,0.476,0.197c0.12,0.131,0.181,0.283,0.181,0.459v9.545c0,1.662,0.465,2.93,1.394,3.807
					c0.93,0.873,2.192,1.311,3.789,1.311c1.618,0,2.891-0.438,3.821-1.311c0.929-0.877,1.394-2.145,1.394-3.807v-9.545
					c0-0.176,0.06-0.328,0.182-0.459C575.196,399.118,575.356,399.052,575.553,399.052z"/>
				<path fill="#363636" d="M582.604,398.921h7.61c0.175,0,0.321,0.064,0.443,0.197c0.12,0.131,0.18,0.273,0.18,0.426
					c0,0.176-0.06,0.322-0.18,0.443c-0.122,0.119-0.269,0.18-0.443,0.18h-7.61c-0.154,0-0.295-0.066-0.426-0.195
					c-0.131-0.133-0.197-0.275-0.197-0.428c0-0.176,0.066-0.322,0.197-0.443C582.31,398.981,582.45,398.921,582.604,398.921z
					 M585.95,394.099c0.197,0,0.355,0.066,0.476,0.197s0.181,0.283,0.181,0.459v17.09c0,0.721,0.093,1.252,0.278,1.59
					c0.186,0.34,0.422,0.559,0.706,0.658c0.284,0.096,0.558,0.146,0.819,0.146c0.153,0,0.284-0.021,0.394-0.066
					c0.109-0.043,0.24-0.064,0.395-0.064c0.153,0,0.283,0.061,0.394,0.18c0.109,0.121,0.164,0.258,0.164,0.41
					c0,0.197-0.127,0.367-0.378,0.508c-0.251,0.143-0.563,0.215-0.935,0.215c-0.131,0-0.366-0.006-0.706-0.018
					c-0.339-0.01-0.699-0.109-1.082-0.295c-0.382-0.186-0.705-0.525-0.968-1.016c-0.262-0.494-0.393-1.219-0.393-2.184v-17.154
					c0-0.176,0.065-0.328,0.196-0.459S585.775,394.099,585.95,394.099z"/>
				<path fill="#363636" d="M604.155,415.749c-1.639,0-3.088-0.35-4.346-1.051c-1.257-0.699-2.246-1.689-2.968-2.969
					s-1.083-2.783-1.083-4.51c0-1.836,0.355-3.4,1.066-4.689c0.711-1.291,1.629-2.281,2.755-2.969
					c1.127-0.691,2.324-1.035,3.592-1.035c0.919,0,1.815,0.148,2.689,0.443s1.657,0.754,2.347,1.377
					c0.688,0.623,1.245,1.4,1.672,2.33c0.426,0.93,0.661,2.039,0.705,3.33c0,0.174-0.065,0.334-0.196,0.475
					c-0.131,0.143-0.284,0.213-0.459,0.213h-13.383l-0.198-1.246h13.22l-0.327,0.295v-0.59c-0.109-1.16-0.477-2.133-1.1-2.92
					s-1.372-1.383-2.246-1.787c-0.876-0.404-1.783-0.607-2.724-0.607c-0.655,0-1.344,0.148-2.065,0.443
					c-0.723,0.295-1.39,0.742-2.001,1.346c-0.612,0.602-1.11,1.361-1.493,2.279s-0.574,1.99-0.574,3.213
					c0,1.336,0.268,2.559,0.805,3.676c0.535,1.113,1.333,2.01,2.395,2.689c1.06,0.678,2.366,1.016,3.918,1.016
					c0.744,0,1.444-0.125,2.1-0.377c0.657-0.25,1.247-0.584,1.771-1c0.525-0.414,0.951-0.863,1.28-1.346
					c0.175-0.195,0.36-0.295,0.558-0.295c0.152,0,0.283,0.061,0.394,0.182c0.108,0.119,0.163,0.256,0.163,0.408
					c0,0.154-0.044,0.285-0.131,0.395c-0.678,0.875-1.547,1.641-2.607,2.295C606.621,415.421,605.446,415.749,604.155,415.749z"/>
				<path fill="#363636" d="M629.446,415.421c-0.196,0-0.355-0.066-0.476-0.197c-0.12-0.133-0.181-0.283-0.181-0.461v-15.055
					c0-0.176,0.066-0.328,0.197-0.459c0.132-0.131,0.283-0.197,0.459-0.197c0.197,0,0.354,0.066,0.477,0.197
					c0.119,0.131,0.18,0.283,0.18,0.459v5.543l-0.558,0.854c0-0.854,0.147-1.717,0.442-2.592c0.295-0.873,0.727-1.689,1.297-2.443
					c0.566-0.754,1.262-1.367,2.082-1.836c0.82-0.471,1.766-0.707,2.838-0.707c0.305,0,0.634,0.045,0.983,0.133
					c0.35,0.086,0.524,0.295,0.524,0.623c0,0.195-0.055,0.359-0.163,0.49c-0.11,0.133-0.252,0.199-0.427,0.199
					c-0.131,0-0.29-0.051-0.476-0.148c-0.187-0.1-0.454-0.148-0.804-0.148c-0.7,0-1.389,0.207-2.067,0.623
					c-0.678,0.416-1.294,0.967-1.853,1.658c-0.558,0.688-1.001,1.438-1.329,2.246c-0.327,0.809-0.491,1.596-0.491,2.361v8.199
					c0,0.178-0.065,0.328-0.197,0.461C629.774,415.354,629.621,415.421,629.446,415.421z"/>
				<path fill="#363636" d="M649.979,415.749c-1.64,0-3.089-0.35-4.346-1.051c-1.258-0.699-2.247-1.689-2.969-2.969
					c-0.723-1.279-1.082-2.783-1.082-4.51c0-1.836,0.354-3.4,1.066-4.689c0.709-1.291,1.628-2.281,2.754-2.969
					c1.127-0.691,2.324-1.035,3.592-1.035c0.919,0,1.815,0.148,2.689,0.443c0.875,0.295,1.656,0.754,2.347,1.377
					c0.688,0.623,1.245,1.4,1.673,2.33c0.426,0.93,0.66,2.039,0.704,3.33c0,0.174-0.065,0.334-0.196,0.475
					c-0.131,0.143-0.284,0.213-0.459,0.213H642.37l-0.197-1.246h13.219l-0.327,0.295v-0.59c-0.109-1.16-0.477-2.133-1.1-2.92
					c-0.624-0.787-1.372-1.383-2.247-1.787s-1.783-0.607-2.723-0.607c-0.655,0-1.344,0.148-2.066,0.443
					c-0.722,0.295-1.389,0.742-2,1.346c-0.613,0.602-1.11,1.361-1.494,2.279c-0.381,0.918-0.573,1.99-0.573,3.213
					c0,1.336,0.269,2.559,0.805,3.676c0.535,1.113,1.333,2.01,2.395,2.689c1.06,0.678,2.366,1.016,3.919,1.016
					c0.743,0,1.443-0.125,2.1-0.377c0.656-0.25,1.246-0.584,1.771-1c0.526-0.414,0.952-0.863,1.28-1.346
					c0.175-0.195,0.36-0.295,0.558-0.295c0.152,0,0.283,0.061,0.394,0.182c0.108,0.119,0.163,0.256,0.163,0.408
					c0,0.154-0.044,0.285-0.131,0.395c-0.678,0.875-1.547,1.641-2.608,2.295C652.444,415.421,651.27,415.749,649.979,415.749z"/>
				<path fill="#363636" d="M662.38,412.796c-0.153-0.264-0.226-0.475-0.214-0.639c0.011-0.164,0.093-0.301,0.246-0.412
					c0.109-0.107,0.257-0.156,0.442-0.146c0.186,0.012,0.345,0.094,0.476,0.246c0.568,0.811,1.296,1.465,2.183,1.969
					c0.885,0.502,1.929,0.754,3.133,0.754c0.721,0,1.414-0.121,2.082-0.361c0.667-0.24,1.214-0.602,1.64-1.082
					c0.428-0.482,0.64-1.072,0.64-1.771c0-0.742-0.208-1.34-0.623-1.787s-0.95-0.805-1.607-1.066
					c-0.655-0.262-1.344-0.48-2.066-0.656c-0.766-0.197-1.492-0.42-2.181-0.672c-0.69-0.252-1.296-0.57-1.82-0.953
					c-0.526-0.381-0.94-0.834-1.247-1.359s-0.459-1.148-0.459-1.869c0-0.854,0.229-1.619,0.689-2.297
					c0.459-0.678,1.104-1.209,1.935-1.592c0.831-0.381,1.793-0.574,2.886-0.574c0.526,0,1.083,0.066,1.674,0.197
					c0.59,0.131,1.182,0.355,1.771,0.674c0.59,0.316,1.137,0.758,1.641,1.328c0.174,0.131,0.256,0.289,0.245,0.475
					c-0.011,0.188-0.094,0.355-0.245,0.508c-0.133,0.088-0.274,0.133-0.428,0.133s-0.284-0.066-0.394-0.197
					c-0.568-0.635-1.229-1.104-1.985-1.412c-0.754-0.305-1.557-0.459-2.41-0.459c-0.722,0-1.393,0.121-2.017,0.363
					c-0.623,0.24-1.132,0.594-1.525,1.064s-0.59,1.066-0.59,1.789c0.042,0.678,0.277,1.234,0.704,1.672
					c0.426,0.438,0.995,0.799,1.706,1.082c0.71,0.285,1.514,0.547,2.411,0.787c0.722,0.176,1.395,0.379,2.018,0.607
					c0.623,0.23,1.169,0.52,1.639,0.869c0.472,0.35,0.843,0.787,1.116,1.313c0.273,0.523,0.409,1.182,0.409,1.967
					c0,0.92-0.245,1.713-0.737,2.379c-0.491,0.668-1.169,1.182-2.033,1.541c-0.864,0.361-1.854,0.543-2.97,0.543
					c-1.137,0-2.23-0.23-3.279-0.689C664.183,414.601,663.232,413.845,662.38,412.796z"/>
				<path fill="#363636" d="M696.165,407.153c0,1.619-0.35,3.078-1.05,4.381c-0.7,1.301-1.656,2.328-2.87,3.082
					c-1.213,0.754-2.598,1.133-4.149,1.133c-1.53,0-2.908-0.379-4.132-1.133c-1.226-0.754-2.193-1.781-2.903-3.082
					c-0.712-1.303-1.066-2.762-1.066-4.381c0-1.639,0.354-3.111,1.066-4.412c0.71-1.299,1.678-2.328,2.903-3.082
					c1.224-0.756,2.602-1.133,4.132-1.133c1.552,0,2.937,0.377,4.149,1.133c1.214,0.754,2.17,1.783,2.87,3.082
					C695.815,404.042,696.165,405.515,696.165,407.153z M694.854,407.153c0-1.42-0.29-2.684-0.869-3.789
					c-0.581-1.104-1.379-1.977-2.395-2.623c-1.017-0.645-2.183-0.969-3.494-0.969c-1.29,0-2.449,0.324-3.477,0.969
					c-1.028,0.646-1.837,1.52-2.427,2.623c-0.592,1.105-0.887,2.369-0.887,3.789c0,1.4,0.295,2.652,0.887,3.756
					c0.59,1.105,1.398,1.98,2.427,2.625c1.027,0.645,2.187,0.967,3.477,0.967c1.312,0,2.478-0.322,3.494-0.967
					c1.016-0.645,1.813-1.52,2.395-2.625C694.563,409.806,694.854,408.554,694.854,407.153z"/>
				<path fill="#363636" d="M704.528,414.763c0,0.178-0.064,0.328-0.197,0.461c-0.131,0.131-0.284,0.197-0.459,0.197
					c-0.196,0-0.355-0.066-0.475-0.197c-0.121-0.133-0.181-0.283-0.181-0.461v-22.961c0-0.174,0.065-0.326,0.196-0.459
					c0.131-0.131,0.284-0.195,0.459-0.195c0.197,0,0.355,0.064,0.477,0.195c0.119,0.133,0.18,0.285,0.18,0.459V414.763z"/>
				<path fill="#363636" d="M724.8,399.052c0.197,0,0.355,0.066,0.476,0.197s0.181,0.283,0.181,0.459v9.545
					c0,2.121-0.596,3.713-1.787,4.773c-1.192,1.061-2.772,1.59-4.74,1.59c-1.947,0-3.516-0.529-4.707-1.59
					c-1.192-1.061-1.787-2.652-1.787-4.773v-9.545c0-0.176,0.064-0.328,0.195-0.459c0.133-0.131,0.285-0.197,0.46-0.197
					c0.197,0,0.354,0.066,0.477,0.197c0.12,0.131,0.18,0.283,0.18,0.459v9.545c0,1.662,0.465,2.93,1.394,3.807
					c0.931,0.873,2.193,1.311,3.789,1.311c1.618,0,2.891-0.438,3.821-1.311c0.929-0.877,1.394-2.145,1.394-3.807v-9.545
					c0-0.176,0.061-0.328,0.182-0.459C724.444,399.118,724.604,399.052,724.8,399.052z"/>
				<path fill="#363636" d="M731.852,398.921h7.61c0.175,0,0.322,0.064,0.443,0.197c0.12,0.131,0.18,0.273,0.18,0.426
					c0,0.176-0.06,0.322-0.18,0.443c-0.121,0.119-0.269,0.18-0.443,0.18h-7.61c-0.153,0-0.295-0.066-0.426-0.195
					c-0.131-0.133-0.197-0.275-0.197-0.428c0-0.176,0.066-0.322,0.197-0.443C731.557,398.981,731.698,398.921,731.852,398.921z
					 M735.198,394.099c0.197,0,0.354,0.066,0.475,0.197s0.182,0.283,0.182,0.459v17.09c0,0.721,0.092,1.252,0.277,1.59
					c0.186,0.34,0.422,0.559,0.706,0.658c0.284,0.096,0.558,0.146,0.819,0.146c0.154,0,0.285-0.021,0.395-0.066
					c0.109-0.043,0.24-0.064,0.394-0.064s0.284,0.061,0.394,0.18c0.109,0.121,0.164,0.258,0.164,0.41
					c0,0.197-0.127,0.367-0.378,0.508c-0.251,0.143-0.563,0.215-0.935,0.215c-0.131,0-0.366-0.006-0.705-0.018
					c-0.34-0.01-0.7-0.109-1.083-0.295c-0.382-0.186-0.704-0.525-0.968-1.016c-0.262-0.494-0.393-1.219-0.393-2.184v-17.154
					c0-0.176,0.065-0.328,0.196-0.459S735.022,394.099,735.198,394.099z"/>
				<path fill="#363636" d="M746.842,396.296c-0.35,0-0.629-0.098-0.836-0.295c-0.208-0.195-0.312-0.447-0.312-0.754v-0.264
					c0-0.305,0.109-0.557,0.328-0.754s0.503-0.295,0.853-0.295c0.306,0,0.563,0.098,0.771,0.295
					c0.208,0.197,0.313,0.449,0.313,0.754v0.264c0,0.307-0.104,0.559-0.313,0.754C747.438,396.198,747.17,396.296,746.842,396.296z
					 M747.499,414.763c0,0.178-0.066,0.328-0.198,0.461c-0.131,0.131-0.284,0.197-0.459,0.197c-0.196,0-0.354-0.066-0.476-0.197
					c-0.12-0.133-0.18-0.283-0.18-0.461v-15.58c0-0.174,0.065-0.328,0.196-0.459c0.132-0.131,0.284-0.197,0.459-0.197
					c0.197,0,0.354,0.066,0.477,0.197c0.12,0.131,0.181,0.285,0.181,0.459V414.763z"/>
				<path fill="#363636" d="M770.558,407.153c0,1.619-0.35,3.078-1.05,4.381c-0.699,1.301-1.656,2.328-2.87,3.082
					c-1.213,0.754-2.597,1.133-4.149,1.133c-1.53,0-2.908-0.379-4.132-1.133c-1.226-0.754-2.193-1.781-2.903-3.082
					c-0.711-1.303-1.066-2.762-1.066-4.381c0-1.639,0.355-3.111,1.066-4.412c0.71-1.299,1.678-2.328,2.903-3.082
					c1.224-0.756,2.602-1.133,4.132-1.133c1.553,0,2.937,0.377,4.149,1.133c1.214,0.754,2.171,1.783,2.87,3.082
					C770.208,404.042,770.558,405.515,770.558,407.153z M769.246,407.153c0-1.42-0.29-2.684-0.869-3.789
					c-0.58-1.104-1.378-1.977-2.394-2.623c-1.018-0.645-2.183-0.969-3.495-0.969c-1.29,0-2.449,0.324-3.477,0.969
					c-1.028,0.646-1.837,1.52-2.427,2.623c-0.591,1.105-0.886,2.369-0.886,3.789c0,1.4,0.295,2.652,0.886,3.756
					c0.59,1.105,1.398,1.98,2.427,2.625c1.027,0.645,2.187,0.967,3.477,0.967c1.313,0,2.478-0.322,3.495-0.967
					c1.016-0.645,1.813-1.52,2.394-2.625C768.956,409.806,769.246,408.554,769.246,407.153z"/>
				<path fill="#363636" d="M784.894,398.526c1.377,0,2.496,0.273,3.361,0.82c0.863,0.547,1.498,1.291,1.902,2.23
					c0.404,0.941,0.607,1.99,0.607,3.148v10.037c0,0.178-0.065,0.328-0.197,0.461c-0.131,0.131-0.285,0.197-0.46,0.197
					c-0.196,0-0.354-0.066-0.475-0.197c-0.12-0.133-0.181-0.283-0.181-0.461v-9.904c0-0.941-0.158-1.793-0.477-2.559
					c-0.316-0.766-0.819-1.379-1.508-1.838s-1.591-0.689-2.707-0.689c-0.962,0-1.902,0.23-2.82,0.689s-1.679,1.072-2.279,1.838
					c-0.602,0.766-0.902,1.617-0.902,2.559v9.904c0,0.178-0.065,0.328-0.197,0.461c-0.131,0.131-0.285,0.197-0.459,0.197
					c-0.197,0-0.355-0.066-0.476-0.197c-0.12-0.133-0.181-0.283-0.181-0.461v-15.055c0-0.176,0.065-0.328,0.196-0.459
					c0.132-0.131,0.284-0.197,0.46-0.197c0.197,0,0.354,0.066,0.477,0.197c0.119,0.131,0.18,0.283,0.18,0.459v3.215l-0.821,1.574
					c0-0.787,0.208-1.541,0.624-2.264c0.415-0.721,0.962-1.361,1.64-1.918c0.679-0.559,1.427-0.996,2.248-1.313
					C783.269,398.685,784.083,398.526,784.894,398.526z"/>
			</g>
		</g>
		<path fill="none" d="M583.031,307.669c-0.062-0.516-0.173-0.988-0.288-1.469C582.842,306.688,582.922,307.183,583.031,307.669z"/>
		<g>
			<g>
				<path fill="#555655" d="M158.132,247.991c13.401,13.402,20.104,29.602,20.104,48.594v60.578c0,2.219-0.8,4.127-2.396,5.725
					c-1.6,1.598-3.508,2.396-5.727,2.396h-0.398c-2.22,0-4.129-0.799-5.725-2.396c-1.6-1.598-2.397-3.506-2.397-5.725v-15.045
					c-17.396,15.445-34.748,23.166-52.057,23.166c-18.995,0-35.193-6.699-48.594-20.104c-13.403-13.402-20.104-29.6-20.104-48.596
					c0-18.992,6.7-35.191,20.104-48.594c13.4-13.402,29.599-20.104,48.594-20.104C128.53,227.888,144.729,234.589,158.132,247.991z
					 M72.659,259.839c-10.119,10.209-15.178,22.457-15.178,36.746c0,14.379,5.059,26.674,15.178,36.879
					c10.205,10.119,22.499,15.178,36.878,15.178s26.628-5.059,36.746-15.178c10.206-10.205,15.311-22.5,15.311-36.879
					c0-14.289-5.104-26.537-15.311-36.746c-10.03-10.205-22.28-15.311-36.746-15.311C95.158,244.528,82.864,249.634,72.659,259.839z
					"/>
				<path fill="#555655" d="M330.146,173.3c2.217,0,4.128,0.756,5.725,2.264c1.599,1.598,2.396,3.553,2.396,5.859v115.563
					c-0.09,18.816-6.836,34.928-20.236,48.328c-13.403,13.314-29.557,19.971-48.463,19.971c-18.994,0-35.193-6.699-48.595-20.104
					c-13.403-13.402-20.104-29.6-20.104-48.596c0-18.992,6.7-35.191,20.104-48.594c13.401-13.402,29.601-20.104,48.595-20.104
					c17.308,0,34.66,7.721,52.057,23.166v-69.631c0-2.307,0.8-4.262,2.396-5.859c1.599-1.508,3.506-2.264,5.726-2.264H330.146z
					 M232.688,260.106c-10.117,10.207-15.177,22.5-15.177,36.879c0,14.291,5.06,26.539,15.177,36.744
					c10.207,10.209,22.5,15.313,36.879,15.313c14.467,0,26.715-5.104,36.746-15.313c10.205-10.205,15.311-22.453,15.311-36.744
					c0-14.379-5.105-26.672-15.311-36.879c-10.031-10.207-22.279-15.311-36.746-15.311
					C255.188,244.796,242.896,249.899,232.688,260.106z"/>
				<path fill="#555655" d="M423.208,227.888c2.307,0,4.26,0.799,5.856,2.396c1.509,1.598,2.264,3.551,2.264,5.857v0.266
					c0,2.311-0.755,4.217-2.264,5.727c-1.597,1.598-3.55,2.395-5.856,2.395h-7.59c-9.409,0-17.44,3.33-24.097,9.986
					c-6.569,6.656-9.897,14.691-9.986,24.098v78.551c0,2.219-0.798,4.127-2.397,5.725c-1.596,1.598-3.506,2.396-5.723,2.396h-0.4
					c-2.22,0-4.127-0.799-5.725-2.396s-2.396-3.506-2.396-5.725v-78.551c0.176-14.111,5.101-26.096,14.777-35.947
					c9.852-9.852,21.833-14.777,35.946-14.777H423.208z"/>
			</g>
		</g>
		<g>
			<g>
				<path fill="#555655" d="M758.313,244.528c-6.037,0-11.184,2.131-15.444,6.391c-4.26,4.35-6.391,9.5-6.391,15.445
					c0,8.52,3.995,14.91,11.983,19.172c2.306,1.154,10.252,3.551,23.831,7.189c9.318,2.662,16.021,5.99,20.104,9.984
					c5.769,5.416,8.654,13.445,8.654,24.098c0,10.65-3.729,19.75-11.184,27.293c-7.545,7.455-16.643,11.184-27.293,11.184h-34.748
					c-2.22,0-4.129-0.799-5.727-2.396s-2.396-3.506-2.396-5.725v-0.266c0-2.309,0.798-4.262,2.396-5.859s3.507-2.396,5.727-2.396
					h36.08c6.033,0,11.183-2.131,15.443-6.391s6.391-9.406,6.391-15.443c0-8.254-4.04-14.332-12.115-18.238
					c-1.688-0.801-9.586-3.195-23.699-7.191c-9.143-2.75-15.843-6.123-20.104-10.117c-5.771-5.77-8.654-14.068-8.654-24.896
					c0-10.652,3.729-19.705,11.184-27.16c7.544-7.543,16.643-11.316,27.294-11.316h24.497c2.307,0,4.26,0.799,5.857,2.396
					s2.396,3.551,2.396,5.857v0.266c0,2.221-0.799,4.129-2.396,5.727s-3.551,2.395-5.857,2.395H758.313z"/>
			</g>
		</g>
		<path fill="#555655" d="M673.772,246.003c-12.612-12.611-27.853-18.918-45.724-18.918c-8.814,0-16.988,1.543-24.524,4.611
			c-7.744,3.15-14.81,7.916-21.197,14.307c-0.551,0.549-1.074,1.109-1.6,1.67c0.171,0.254,0.323,0.523,0.488,0.783
			c2.918,4.484,5.355,9.309,7.197,14.42c1.468-1.979,3.115-3.887,4.936-5.727c9.604-9.602,21.171-14.406,34.7-14.406
			c13.611,0,27.908,4.807,37.348,14.41c9.602,9.604,14.404,21.127,14.404,34.574c0,13.527-4.803,25.098-14.404,34.699
			c-8.112,8.113-20.453,12.752-31.473,13.953c-0.835,5.559-2.339,10.896-4.407,15.941c15.798-0.422,30.754-3.496,47.514-16.289
			v-0.709v1.813v10.396v1.559v4.814c0,2.086,0.75,3.881,2.255,5.387c1.503,1.502,3.297,2.256,5.385,2.256h0.376
			c2.088,0,3.884-0.754,5.387-2.256c1.503-1.506,2.256-3.301,2.256-5.387v-18.16v3.467v-23.924v2.086v-29.65
			C692.688,273.854,686.381,258.612,673.772,246.003z"/>
		<path fill="#93C43E" d="M612.939,336.718c-7.675-2.422-14.594-6.672-20.749-12.773c-7.733-7.801-12.501-16.826-14.324-27.063
			c-0.561-3.158-0.854-6.428-0.854-9.818c0-0.857,0.024-1.705,0.062-2.549c-0.686-4.643-1.84-9.092-3.428-13.357
			c-1.634-4.393-2.65-7.473-5.24-11.467c-3.896,8.732-7.188,17.285-7.188,27.451c0,21.453,9.674,40.684,24.876,53.588
			c4.729,3.857,9.76,6.98,15.106,9.354c0.048-0.037,0.089-0.08,0.134-0.119c4.022,1.875,8.227,3.313,12.635,4.291
			c2.461-4.928,4.236-10.252,5.219-15.854c-2.189-0.357-4.333-0.818-6.412-1.443C612.827,336.874,612.889,336.8,612.939,336.718z"/>
		<path fill="#555655" d="M462.59,287.288c-0.067,0.488-0.168,1.479-0.168,1.479c-0.229,2.063-0.355,4.166-0.355,6.326
			c0,14.33,4.971,26.586,14.917,36.756c5.496,5.527,11.611,9.527,18.339,12.025c5.272,1.957,10.918,2.982,16.942,3.084
			c0.323,0.004,0.644,0.021,0.967,0.021c4.997,0,9.772-0.398,14.308-1.342c8.825-2.162,13.967-5.328,20.806-12.266
			c4.188-4.244,7.48-8.865,9.917-13.838c5.296,10.469,12.626,19.711,21.491,27.148v10.313c0,2.209-0.784,4.109-2.354,5.703
			c-1.572,1.592-3.449,2.391-5.625,2.391h-0.395c-2.184,0-4.059-0.799-5.628-2.391c-1.569-1.594-2.354-3.494-2.354-5.703v-14.998
			c-2.058,1.854-4.113,3.582-6.166,5.211c0.011,0.02,0.023,0.043,0.037,0.053c-6.232,5.094-12.509,8.93-18.781,11.717
			c-6.604,3.059-10.51,3.607-17.098,4.367c-2.157,0.248-4.312,0.377-6.466,0.377c-2.208,0-4.362-0.135-6.489-0.328
			c-1.936-0.121-3.842-0.326-5.718-0.604c-14.202-2.08-26.625-8.488-37.249-19.264c-13.174-13.354-19.762-29.502-19.762-48.434
			c0-5.678,0.605-11.096,1.791-16.27l15.025,8.953"/>
		<path fill="#93C43E" d="M557.204,245.507c-2.971-2.729-6.185-5.23-9.574-7.475c-0.403-0.268-0.81-0.529-1.215-0.789
			c-10.739-6.811-21.863-10.055-34.674-10.055c-13.314,0-25.221,3.428-35.74,10.229c-0.16,0.098-0.315,0.203-0.473,0.303
			c-0.232,0.152-0.465,0.299-0.694,0.451c-4.247,2.738-8.272,6.012-12.063,9.855c-4.755,4.818-6.786,8.158-9.823,13.705
			c-0.238,0.424-0.465,0.854-0.689,1.285c3.89,4.098,8.348,7.631,13.254,10.463c0.189-0.426,0.374-0.852,0.576-1.271
			c2.436-5.115,3.93-8.008,8.198-12.373c10.032-10.172,22.116-15.26,36.251-15.26c11.281,0,20.637,1.859,29.508,8.084
			c0.379,0.266,0.747,0.549,1.118,0.826c0.913,0.68,1.81,1.387,2.681,2.148c0.904,0.793,1.793,1.611,2.65,2.494
			c1.073,1.086,2.076,2.203,3.027,3.338c0.379,0.457,0.744,0.916,1.107,1.379c2.563-6.361,5.048-10.59,7.632-16.336
			C557.909,246.173,557.558,245.831,557.204,245.507z"/>
	</g>
</g>
</svg>
